<svg width="20" height="20" viewBox="0 0 20 20" fill="none" xmlns="http://www.w3.org/2000/svg">
<g clip-path="url(#clip0_1113185_1146)">
<path d="M11.526 13.8067C11.6981 13.8858 11.892 13.9038 12.0758 13.8579C12.2595 13.8121 12.4221 13.7049 12.5368 13.5542L12.8327 13.1667C12.9879 12.9598 13.1892 12.7917 13.4207 12.676C13.6521 12.5603 13.9073 12.5001 14.166 12.5001H16.666C17.108 12.5001 17.532 12.6757 17.8445 12.9882C18.1571 13.3008 18.3327 13.7247 18.3327 14.1667V16.6667C18.3327 17.1088 18.1571 17.5327 17.8445 17.8453C17.532 18.1578 17.108 18.3334 16.666 18.3334C12.6878 18.3334 8.87246 16.7531 6.05941 13.94C3.24637 11.127 1.66602 7.31166 1.66602 3.33341C1.66602 2.89139 1.84161 2.46746 2.15417 2.1549C2.46673 1.84234 2.89065 1.66675 3.33268 1.66675H5.83268C6.27471 1.66675 6.69863 1.84234 7.01119 2.1549C7.32375 2.46746 7.49935 2.89139 7.49935 3.33341V5.83341C7.49935 6.09216 7.43911 6.34734 7.32339 6.57877C7.20768 6.8102 7.03968 7.0115 6.83268 7.16675L6.44268 7.45925C6.2897 7.57606 6.18187 7.74224 6.13751 7.92954C6.09315 8.11684 6.115 8.31373 6.19935 8.48675C7.33825 10.8 9.21137 12.6707 11.526 13.8067Z" stroke="#F9F6F1" stroke-width="1.66667" stroke-linecap="round" stroke-linejoin="round"/>
</g>
<defs>
<clipPath id="clip0_1113185_1146">
<rect width="20" height="20" fill="white"/>
</clipPath>
</defs>
</svg>