<svg width="32" height="32" viewBox="0 0 32 32" fill="none" xmlns="http://www.w3.org/2000/svg">
<path fill-rule="evenodd" clip-rule="evenodd" d="M13.0483 0.590159C3.86896 2.68246 -1.16005 12.5669 2.68322 20.9619L3.31111 22.3334L2.32267 25.8627C1.77888 27.8036 1.33398 29.4978 1.33398 29.6276C1.33398 29.757 3.03909 29.4162 5.12325 28.8697L8.91252 27.8763L10.5796 28.5432C13.1015 29.5521 16.0617 29.8517 18.5895 29.3538C21.7494 28.7311 23.9902 27.5377 26.2344 25.2817C31.3139 20.1757 32.1095 12.721 28.1994 6.87469C26.0869 3.71652 23.3036 1.72879 19.7042 0.808168C17.6677 0.287314 14.7901 0.193106 13.0483 0.590159ZM20.1454 3.48717C25.5397 5.40239 28.9773 11.2549 28.0122 16.8812C26.625 24.9709 17.896 29.4754 10.6546 25.838L9.36851 25.1921L7.21308 25.7547C6.02759 26.0639 5.00315 26.2625 4.93631 26.1959C4.86973 26.129 5.07985 25.1369 5.40316 23.9906L5.99134 21.9067L5.50748 21.1242C4.72274 19.8544 4.0406 17.5791 3.88992 15.7292C3.6031 12.2098 4.98317 8.74035 7.66932 6.22757C9.42129 4.5888 10.6142 3.8926 12.8017 3.23216C14.7322 2.64966 18.117 2.76704 20.1454 3.48717ZM9.62401 8.95836C8.66664 10.0965 8.38476 11.4415 8.80401 12.8719C10.1323 17.403 16.9599 22.6113 20.6611 21.9168C21.9659 21.6722 23.2619 20.412 23.343 19.3091C23.403 18.4921 23.3337 18.4109 21.9265 17.6513C21.1126 17.2121 20.2492 16.8498 20.0076 16.8459C19.7661 16.8422 19.2275 17.2274 18.8107 17.7022C18.3939 18.1769 17.8551 18.5653 17.6132 18.5653C16.4045 18.5653 12.4317 14.982 12.4317 13.8917C12.4317 13.7314 12.7087 13.2369 13.0473 12.7932L13.6626 11.9863L13.0226 10.405C12.2046 8.38399 12.0475 8.20741 11.067 8.20741C10.466 8.20741 10.0923 8.40174 9.62401 8.95836Z" fill="#F9F6F1"/>
</svg>
