<svg width="27" height="27" viewBox="0 0 27 27" fill="none" xmlns="http://www.w3.org/2000/svg">
<path fill-rule="evenodd" clip-rule="evenodd" d="M10.7826 0.225631C2.33335 2.15151 -2.29567 11.2497 1.24193 18.9771L1.81987 20.2395L0.91005 23.4881C0.409511 25.2746 0 26.8341 0 26.9535C0 27.0727 1.56949 26.759 3.48788 26.2559L6.97576 25.3416L8.5103 25.9554C10.8316 26.884 13.5563 27.1598 15.8831 26.7015C18.7917 26.1283 20.8542 25.0299 22.9199 22.9533C27.5955 18.2534 28.3278 11.3916 24.7287 6.01032C22.7842 3.10333 20.2222 1.2737 16.9091 0.4263C15.0346 -0.0531273 12.3859 -0.139842 10.7826 0.225631ZM17.3152 2.89222C22.2804 4.65512 25.4446 10.0421 24.5564 15.2209C23.2795 22.6673 15.2448 26.8134 8.5793 23.4654L7.39549 22.8709L5.4115 23.3887C4.3203 23.6733 3.37733 23.8561 3.31581 23.7948C3.25452 23.7333 3.44793 22.82 3.74553 21.7649L4.28693 19.8468L3.84155 19.1265C3.11923 17.9576 2.49134 15.8633 2.35265 14.1606C2.08864 10.921 3.35894 7.72759 5.83145 5.41466C7.44407 3.90624 8.54208 3.26541 10.5556 2.6575C12.3326 2.12132 15.4482 2.22938 17.3152 2.89222ZM7.63066 7.92825C6.74944 8.97587 6.48998 10.2139 6.87588 11.5305C8.09852 15.7012 14.3831 20.4953 17.7899 19.8561C18.991 19.6309 20.1839 18.4709 20.2585 17.4557C20.3137 16.7037 20.2499 16.629 18.9546 15.9298C18.2055 15.5255 17.4108 15.1921 17.1883 15.1885C16.9661 15.185 16.4703 15.5396 16.0867 15.9766C15.7031 16.4136 15.2071 16.7711 14.9844 16.7711C13.8719 16.7711 10.2151 13.4728 10.2151 12.4692C10.2151 12.3216 10.47 11.8665 10.7817 11.4581L11.348 10.7154L10.759 9.25985C10.006 7.39957 9.86141 7.23703 8.95885 7.23703C8.40565 7.23703 8.06174 7.41591 7.63066 7.92825Z" fill="#395346"/>
</svg>
