<svg width="110" height="56" viewBox="0 0 110 56" fill="none" xmlns="http://www.w3.org/2000/svg">
<path d="M95 27.3242L99.814 21L98.2791 24.9021L100.791 23.8257L98.0698 29.4098L101 28.4679L98.6977 33.581L100.442 32.6391L97.8605 43L98.4884 34.5902L96.814 35.0612L98.6977 30.3517L95.8372 31.2936L97.8605 26.315L96.186 27.526L95 27.3242Z" fill="#DDA010"/>
<path fill-rule="evenodd" clip-rule="evenodd" d="M83.65 0.133607C82.5806 0.422809 82.615 0.400513 76.8354 4.56888C75.1004 5.82022 71.6364 8.30975 69.1374 10.1012C66.6386 11.8926 64.4585 13.4855 64.293 13.6409C63.504 14.3815 64.3314 15.5625 65.3104 15.093C65.4792 15.0121 66.4487 14.3439 67.4648 13.6083C68.4808 12.8726 69.556 12.0964 69.854 11.8833C70.1519 11.6703 71.1349 10.9594 72.0383 10.3036C72.9417 9.64782 73.9387 8.93238 74.2538 8.71369C74.5689 8.49509 75.6031 7.74911 76.5521 7.05597C79.4021 4.97427 79.8309 4.66396 81.5476 3.4409C83.5044 2.04673 83.92 1.8555 84.9921 1.85613C85.9162 1.85667 86.0373 1.91223 87.5717 3.03949C88.1725 3.48096 89.1978 4.22956 89.85 4.70311C90.5023 5.17665 91.3694 5.81197 91.777 6.11486C92.1845 6.41775 93.0452 7.04736 93.6896 7.51411C94.3341 7.98076 95.2263 8.6333 95.6725 8.96428C96.1186 9.29518 97.1855 10.0726 98.0433 10.6918C98.9012 11.311 99.8137 11.971 100.071 12.1586C100.329 12.3461 100.641 12.5698 100.765 12.6558C100.889 12.7418 101.639 13.2781 102.432 13.8477C103.225 14.4173 103.995 14.9581 104.144 15.0495C105.064 15.6136 106.079 14.587 105.402 13.7776C105.276 13.6267 104.524 13.0424 103.73 12.4791C102.937 11.9159 101.651 10.9895 100.873 10.4205C100.095 9.85147 98.667 8.81511 97.7004 8.11734C95.497 6.52696 92.857 4.59535 91.7969 3.7978C89.4386 2.02371 87.5007 0.662164 87.02 0.44166C86.7226 0.30517 86.2643 0.147835 86.0017 0.0919162C85.3539 -0.0458422 84.2408 -0.0261751 83.65 0.133607ZM69.1575 16.8491C68.4096 17.5022 68.3238 17.6097 68.2736 17.9576C68.2431 18.1696 68.2315 22.6661 68.2479 27.9498L68.2776 37.5567L68.4836 38.2364C69.0623 40.1458 70.3482 41.457 72.1287 41.9532C72.7566 42.1282 73.0688 42.1335 82.5794 42.1335C87.9712 42.1335 92.3818 42.103 92.3805 42.0656C92.3792 42.0281 92.0192 41.6101 91.5805 41.1366L90.7829 40.2756L81.7361 40.2303L72.6894 40.185L72.1696 39.94C71.6149 39.6786 70.7798 38.9104 70.5369 38.4382C70.1263 37.64 70.1208 37.4786 70.1208 26.4939C70.1208 20.7897 70.0904 16.1234 70.0532 16.1243C70.0159 16.1252 69.6129 16.4515 69.1575 16.8491ZM33.3811 16.8984C32.8664 17.6884 30.5556 23.8572 29.7846 26.4998C29.4219 27.7428 29.3949 27.8643 29.2054 29.112C28.9792 30.6005 29.0131 30.784 29.5972 31.2373C29.966 31.5236 30.3177 31.5008 30.5478 31.1759C30.6503 31.0311 30.7342 30.8865 30.7342 30.8545C30.7342 30.7523 31.4961 29.2416 31.882 28.5786C32.2847 27.8867 32.8869 27.2679 33.3943 27.0246C33.704 26.8761 33.7186 26.8775 33.9135 27.0736C34.1891 27.351 34.1694 27.9285 33.8509 28.9037C33.3018 30.5857 32.6071 31.7383 31.7853 32.3311C31.4051 32.6054 31.2641 32.651 30.6813 32.6886C30.3138 32.7124 30.0131 32.7596 30.0131 32.7935C30.0131 32.9031 30.4996 33.3169 30.8243 33.4837C31.2979 33.7268 32.1168 33.7021 32.6626 33.428C33.9222 32.7954 35.2825 30.4516 35.4573 28.6124C35.5364 27.7808 35.4444 27.316 35.1136 26.8746C34.7205 26.3504 34.1457 26.066 33.6006 26.1262C32.9931 26.1932 32.6767 26.3875 31.8387 27.208C31.4301 27.6083 31.0703 27.9102 31.0393 27.8791C30.8639 27.7026 32.188 23.6614 33.1248 21.5151C33.9833 19.5478 34.6097 17.8811 34.6097 17.5641C34.6097 16.8284 33.7355 16.3547 33.3811 16.8984ZM9.23827 17.2159C8.32661 17.539 7.33789 18.1979 6.34331 19.1452C3.75579 21.6096 1.66199 25.2092 0.852986 28.5843C0.745641 29.0319 0.700396 29.619 0.699135 30.5781C0.697602 31.7705 0.722388 32.0044 0.900754 32.4814C1.3003 33.5501 2.113 34.391 3.00348 34.6568C4.32694 35.052 6.42659 33.9902 9.41313 31.4151C10.0439 30.8712 10.4422 30.6817 10.3942 30.9484C10.1704 32.1895 9.9512 35.2953 10.047 35.8658C10.1521 36.4909 10.8759 37.0165 11.1371 36.6574C11.1994 36.5717 11.2747 36.1069 11.3043 35.6243C11.4126 33.8635 11.5947 32.3639 11.95 30.3062C12.3041 28.255 12.3762 28.0447 12.7933 27.8479C13.1849 27.6629 13.2459 27.5772 13.2477 27.2086C13.2504 26.6397 12.8257 26.4825 11.6718 26.6256C10.8645 26.7255 9.27054 27.0154 8.38204 27.2236C8.05983 27.2991 7.59341 27.4022 7.34555 27.4526C6.33223 27.6586 5.94855 27.8099 5.94855 28.0037C5.94855 28.2922 6.1088 28.5239 6.42047 28.6859C6.79117 28.8787 7.74303 28.8129 8.97969 28.5089C10.3238 28.1787 10.5452 28.1476 10.5452 28.2891C10.5452 28.3555 10.0484 28.9072 9.44106 29.5149C7.79638 31.1612 6.20965 32.3976 4.87691 33.0718C4.24609 33.3909 4.02681 33.4563 3.55417 33.4663C2.88045 33.4806 2.60015 33.3154 2.25324 32.6999C2.03882 32.3195 2.02791 32.2298 2.02791 30.85C2.02791 29.1014 2.2052 28.1679 2.85395 26.4998C4.0205 23.5003 6.29275 20.5187 8.57105 18.9979C9.79095 18.1836 10.4184 18.0281 10.8781 18.426C11.1153 18.6313 11.131 18.6889 11.1303 19.355C11.1296 19.9398 11.0667 20.2539 10.773 21.1365C10.4409 22.1344 10.4256 22.2245 10.5506 22.4484C10.7392 22.7864 11.1283 22.9941 11.333 22.866C11.8766 22.526 12.528 20.6719 12.528 19.4642C12.528 18.1267 11.6786 17.1938 10.353 17.0755C9.90361 17.0354 9.6617 17.0658 9.23827 17.2159ZM91.7969 20.3023C87.0921 20.6686 84.3977 25.816 86.6791 30.0797C87.0621 30.7956 87.7916 31.6791 89.8221 33.8861C90.0743 34.1603 90.4595 34.5885 90.6779 34.8378C90.8963 35.087 91.3414 35.5764 91.667 35.9253C91.9926 36.2743 92.4998 36.8243 92.7941 37.1477C93.5536 37.9824 94.6795 39.2006 96.1876 40.8194C96.4661 41.1185 96.8052 41.4855 96.941 41.6351C97.4679 42.2155 97.9843 42.3768 98.3935 42.0887C98.611 41.9354 99.2853 41.2238 102.252 38.0164C102.847 37.3732 103.375 36.8028 103.426 36.7487C103.673 36.4879 107.88 31.8141 108.159 31.4913C109.299 30.1709 109.694 29.3419 109.919 27.8014C110.245 25.5644 109.589 23.628 107.958 22.0134C106.063 20.1376 102.677 19.7144 100.191 21.0425C99.2924 21.5225 98.475 22.3761 98.914 22.3761C99.0926 22.3761 99.2326 22.6623 99.2325 23.0272C99.2324 23.3801 98.8218 24.2936 98.4804 24.7002C98.3489 24.857 98.2412 25.0099 98.2412 25.0401C98.2412 25.2448 98.5971 24.9575 99.5018 24.0226C100.605 22.8822 101.154 22.5207 102.211 22.2379C103.796 21.8137 105.74 22.3742 106.86 23.5784C107.808 24.5969 108.224 25.7845 108.132 27.2059C108.03 28.7889 107.706 29.2983 104.781 32.4814C104.277 33.0297 103.456 33.9269 102.956 34.4752C101.429 36.1502 99.5832 38.0964 99.4486 38.1733C99.3 38.2584 99.1425 38.1825 99.1425 38.0258C99.1425 37.9657 99.3256 37.738 99.5496 37.5198C99.9992 37.0816 100.091 36.8501 100.014 36.3509C99.9762 36.1078 99.8537 35.9166 99.5671 35.6534C99.1334 35.2552 98.509 35.0166 97.0967 34.7089C95.9491 34.4589 95.357 34.0229 95.357 33.4276C95.357 33.0678 95.9619 32.5951 96.7117 32.369C97.6775 32.0777 98.6249 31.9009 98.7819 31.9825C98.8563 32.0212 99.1605 32.1057 99.4579 32.1704C100.06 32.3015 100.312 32.4313 100.742 32.8327C101.072 33.1401 101.139 33.6063 100.903 33.9454C100.735 34.1862 99.9881 34.6693 99.6558 34.7518C99.464 34.7994 99.4098 34.861 99.4305 35.0074C99.4713 35.2952 99.7706 35.2903 100.418 34.9911C101.103 34.6741 101.435 34.3369 101.572 33.8182C101.784 33.0123 101.331 32.3477 100.198 31.8016C99.9398 31.677 99.7283 31.5343 99.7283 31.4844C99.7283 31.4346 100.154 31.249 100.675 31.072C101.763 30.7018 102.042 30.5392 102.295 30.1275C102.787 29.3274 102.286 28.5252 100.97 28.0053C100.738 27.9135 100.533 27.7945 100.515 27.7408C100.483 27.6439 101.282 27.3607 101.588 27.3607C101.908 27.3607 103.179 26.9021 103.546 26.6542C104.88 25.7534 104.599 24.2144 103.05 23.9374C102.46 23.8319 101.5 23.9573 100.966 24.2096C100.595 24.3851 100.575 24.4106 100.725 24.5213C100.838 24.604 101.196 24.6418 101.868 24.6418C102.941 24.6418 103.317 24.7564 103.409 25.1113C103.556 25.6788 102.607 26.3308 101.21 26.6207C100.792 26.7077 100.361 26.8281 100.252 26.8885C100.144 26.9488 99.9211 27 99.7568 27.0022C99.5924 27.0044 99.2957 27.0649 99.0974 27.1368C98.6355 27.3041 98.3426 27.3035 97.9396 27.1342C97.7617 27.0594 97.4626 26.9982 97.2752 26.9981C96.5401 26.998 94.0495 26.3697 93.4997 26.0457C93.0669 25.7907 92.7926 25.3671 92.8802 25.0895C92.9853 24.7567 93.3855 24.6418 94.4402 24.6418C95.1654 24.6418 95.4522 24.609 95.5278 24.5173C95.7621 24.2335 94.815 23.9047 93.7295 23.893C93.1364 23.8865 92.9796 23.9196 92.6318 24.1246C91.8756 24.5702 91.7143 25.4732 92.267 26.1667C92.6676 26.6693 93.6795 27.1479 94.8388 27.3829C95.3912 27.4948 95.8077 27.6238 95.8077 27.6828C95.8077 27.7398 95.5065 27.9361 95.1383 28.119C94.392 28.4899 94.041 28.8431 93.9537 29.3114C93.8676 29.7728 93.9773 30.0812 94.3568 30.4443C94.6901 30.763 94.7556 30.7885 96.5062 31.2804C96.7169 31.3396 96.8892 31.4133 96.8892 31.4441C96.8892 31.4749 96.5498 31.6692 96.1349 31.876C94.7643 32.559 94.3623 33.5411 95.1051 34.3919C95.4794 34.8206 96.5472 35.3386 97.6103 35.6073C98.2349 35.7652 98.8025 35.9889 99.0681 36.1819C99.8632 36.7599 98.922 37.8923 97.9541 37.5222C97.8394 37.4784 97.7049 37.4331 97.6553 37.4216C97.5165 37.3896 97.1158 37.0872 96.878 36.8351C96.634 36.5764 96.5287 36.5468 96.5287 36.7367C96.5287 37.0334 96.7638 37.3484 97.1748 37.6028C97.4143 37.751 97.6103 37.9124 97.6103 37.9616C97.6103 38.0107 97.4988 38.1223 97.3624 38.2095C97.226 38.2967 97.0821 38.4199 97.0424 38.4835C96.8437 38.8019 96.5564 38.5446 94.1403 35.8835C93.8924 35.6105 93.6491 35.3404 93.5995 35.2834C93.4518 35.1132 91.2491 32.6735 90.0515 31.3534C88.3381 29.4647 87.9691 28.8141 87.7823 27.352C87.555 25.5729 88.3395 23.8769 89.8669 22.8456C90.1756 22.6372 90.4947 22.4667 90.5762 22.4667C90.6577 22.4667 90.7629 22.4314 90.81 22.3884C90.9719 22.2404 91.7425 22.1042 92.4183 22.1042C93.2947 22.1042 93.8993 22.2364 94.6911 22.6012C95.2348 22.8517 95.4956 23.0634 96.4089 23.9957C97.0581 24.6586 97.5551 25.0944 97.6606 25.0935C97.7805 25.0926 97.9986 24.8416 98.3538 24.2956C98.7685 23.6582 98.8721 23.4259 98.8721 23.1329C98.8721 22.5895 98.6834 22.4589 98.0811 22.5851L97.6056 22.6848L97.1823 22.1982C95.9946 20.833 94.0002 20.1309 91.7969 20.3023ZM52.564 21.501C52.1842 21.713 51.9858 22.1766 51.9383 22.9634C51.8991 23.6122 51.9155 23.7169 52.0913 23.9394C52.4575 24.403 52.6418 24.2707 53.3125 23.0626C53.64 22.4728 53.6512 21.8558 53.3396 21.5639C53.1153 21.3538 52.8643 21.3334 52.564 21.501ZM41.1224 25.4266C40.9968 25.4777 40.8152 25.8478 40.6183 26.4544C40.4424 26.9965 39.8567 29.2166 39.65 30.125C39.5592 30.5238 39.3988 31.1151 39.2934 31.4391C39.188 31.7631 39.0797 32.2563 39.0528 32.5352C39.0072 33.0042 39.0225 33.0598 39.2554 33.2769C39.8108 33.7948 40.2547 33.6443 40.6219 32.8135C41.1749 31.5626 42.0139 29.8963 42.359 29.3638C42.8639 28.5846 43.9957 27.4272 44.1823 27.4991C44.2601 27.5291 44.3897 27.7276 44.4704 27.9402C44.7401 28.6502 45.5265 29.1773 46.0291 28.9852C46.1678 28.9322 46.3523 28.8242 46.439 28.7451C46.6036 28.5954 46.6586 28.1764 46.5138 28.1764C46.468 28.1764 46.3095 28.0741 46.1617 27.949C45.9731 27.7894 45.8369 27.5359 45.7048 27.0989C45.4856 26.3729 45.3031 26.1178 44.9296 26.0149C44.2841 25.8371 43.5652 26.376 42.4691 27.8592C42.1008 28.3577 41.7672 28.7778 41.7279 28.793C41.5455 28.8629 41.5785 28.5853 41.8567 27.7142C42.2729 26.4105 42.3149 26.128 42.134 25.8503C42.0528 25.7256 41.8488 25.5659 41.6808 25.4952C41.3593 25.3602 41.303 25.3533 41.1224 25.4266ZM60.5488 25.7202C59.8336 25.9542 59.3071 26.2834 58.631 26.9195C57.1984 28.267 56.4791 30.2962 56.9142 31.7625C57.1762 32.6455 57.8749 33.1797 59.0972 33.4313C60.3478 33.6888 62.2489 33 63.1235 31.9728C63.473 31.5622 64.0213 30.6227 63.9521 30.5531C63.9306 30.5315 63.6818 30.703 63.3993 30.9344C62.1875 31.9271 61.0014 32.4377 59.7498 32.5055C59.0884 32.5413 58.9238 32.5196 58.6019 32.3546C58.0595 32.0763 57.9087 31.7953 57.9084 31.063C57.9081 30.2897 57.9927 30.1896 58.5137 30.3475C59.5164 30.6513 60.5933 30.3474 61.3824 29.538C62.3904 28.504 62.7888 27.0852 62.3246 26.1826C62.0507 25.65 61.3338 25.4634 60.5488 25.7202ZM77.6855 25.6476C76.9695 25.7555 76.3701 26.1399 75.4465 27.0832C74.4826 28.0679 73.776 29.127 73.3065 30.291C72.9368 31.2078 72.9075 31.8486 73.2106 32.3907C73.5021 32.9122 73.8962 33.0911 74.6479 33.0431C75.4224 32.9936 75.9671 32.6751 77.0409 31.6435C77.4687 31.2325 77.8449 30.9266 77.8768 30.9638C77.9086 31.0009 78.0012 31.3112 78.0825 31.6533C78.2622 32.4093 78.5061 32.8249 78.9678 33.1611C79.9609 33.8846 81.3001 33.6492 82.3313 32.57C82.7732 32.1075 83.2599 31.2985 83.1579 31.1959C83.1304 31.1681 82.8524 31.34 82.5403 31.5777C81.8958 32.0686 81.0284 32.4952 80.5039 32.5796C80.064 32.6503 79.5633 32.4342 79.4166 32.1102C79.1808 31.5899 79.4403 30.1011 80.0392 28.5382C80.8784 26.3483 80.8925 26.2527 80.417 25.9742C80.082 25.7781 79.4795 25.7283 79.4252 25.8923C79.3749 26.0441 79.1287 26.0286 79.0084 25.866C78.8739 25.684 78.1917 25.5714 77.6855 25.6476ZM19.8285 25.8676C18.8693 26.3252 17.1064 28.3953 16.473 29.8078C16.12 30.5948 16.0303 30.9431 16.0209 31.562C16.0104 32.2578 16.2141 32.677 16.677 32.9117C17.0353 33.0935 17.7638 33.1196 18.2153 32.9668C18.6261 32.8279 19.7414 31.9681 20.2804 31.3751C20.5202 31.1112 20.7574 30.8953 20.8072 30.8953C20.9083 30.8953 20.9613 31.0419 21.0527 31.5751C21.3319 33.2032 22.8258 33.9693 24.3548 33.2684C24.9423 32.9991 25.4734 32.5007 25.9046 31.8138C26.1186 31.4728 26.2062 31.1672 26.0899 31.1672C26.0636 31.1672 25.8304 31.3368 25.5716 31.5441C24.4839 32.4151 23.0534 32.819 22.6156 32.3787C22.3382 32.0998 22.2434 31.5369 22.3537 30.824C22.4501 30.2014 22.6586 29.3611 22.7972 29.0374C22.8398 28.9377 22.9234 28.7134 22.983 28.5389C23.0426 28.3645 23.1274 28.1402 23.1715 28.0405C23.4072 27.5077 23.7041 26.6049 23.7041 26.4211C23.7041 25.9447 22.9262 25.619 22.3945 25.8727C22.0923 26.0169 22.067 26.016 21.8896 25.8546C21.7484 25.726 21.5346 25.6781 21.0135 25.6579C20.4237 25.635 20.2526 25.6653 19.8285 25.8676ZM50.8037 26.2885C50.5681 26.4651 50.0219 27.4882 50.0219 27.7527C50.0219 27.8163 49.9877 27.907 49.946 27.9544C49.9043 28.0017 49.782 28.3464 49.6743 28.7202C49.5666 29.0941 49.436 29.5223 49.3841 29.6718C49.3323 29.8214 49.2662 30.3392 49.2374 30.8227C49.1879 31.6525 49.1989 31.7302 49.4331 32.2114C49.7264 32.8145 50.195 33.1919 50.9099 33.4009C51.3319 33.5243 51.4739 33.5284 51.8832 33.4296C52.5131 33.2777 53.0946 32.9331 53.7827 32.3036C54.7876 31.3845 54.9808 30.8682 54.0891 31.4851C53.5168 31.8809 52.563 32.3242 52.0157 32.4487C51.4876 32.5689 51.2031 32.4648 50.8739 32.0307C50.6347 31.7154 50.6284 31.6785 50.6845 30.9148C50.7562 29.9396 51.0886 28.7075 51.5639 27.6569C51.8326 27.0629 51.8839 26.4894 51.6877 26.2715C51.4796 26.0403 51.1258 26.0471 50.8037 26.2885ZM61.5209 26.7693C61.6611 27.3314 60.6533 28.6269 59.7263 29.0759C59.1143 29.3724 58.7539 29.4521 58.703 29.3026C58.6073 29.0213 60.1166 27.1745 60.835 26.6942C61.1695 26.4704 61.454 26.5016 61.5209 26.7693ZM21.5315 26.9904C21.6951 27.0946 21.6159 27.501 21.3018 28.1695C21.0339 28.7397 20.8172 29.0532 20.1068 29.8984C19.5229 30.5932 19.4812 30.6351 18.8371 31.1787C18.2519 31.6726 17.8509 31.8923 17.5347 31.8923C17.3302 31.8923 17.3049 31.8557 17.3049 31.5607C17.3049 30.594 19.48 27.5985 20.5767 27.0546C20.8954 26.8966 21.3374 26.8669 21.5315 26.9904ZM78.6277 27.293C78.6125 27.7932 78.1254 28.7084 77.3966 29.6061C76.6797 30.4893 76.4748 30.7031 75.889 31.1803C75.3383 31.6287 74.8492 31.8923 74.5677 31.8923C74.3445 31.8923 74.3355 31.8736 74.3776 31.4979C74.4909 30.4872 76.2331 27.9879 77.3588 27.221C77.7494 26.9549 77.8939 26.9063 78.2324 26.9275L78.638 26.9529L78.6277 27.293ZM98.4665 28.2257C98.9126 28.3024 99.3588 28.3777 99.4579 28.3933C100.2 28.5096 100.47 28.5867 100.941 28.8159C102.644 29.6455 101.239 30.8744 98.3099 31.1168C96.7857 31.243 94.7261 30.3859 94.7261 29.6254C94.7261 29.3165 95.12 28.8883 95.553 28.7265C95.7178 28.6649 95.9859 28.5568 96.1487 28.4861C96.3115 28.4155 96.4991 28.3577 96.5657 28.3577C96.6323 28.3577 96.7374 28.2965 96.7991 28.2217C96.9431 28.0473 97.4337 28.0485 98.4665 28.2257ZM98.6408 38.3408C98.9793 38.4959 99.0211 38.753 98.754 39.0379C98.6299 39.1704 98.4663 39.4304 98.3905 39.6158C98.2578 39.9401 98.2421 39.9493 97.9773 39.8565C97.662 39.746 97.2497 39.2952 97.2497 39.061C97.2497 38.7772 97.6182 38.5138 98.3947 38.2428C98.4047 38.2393 98.5154 38.2834 98.6408 38.3408ZM26.0255 39.256C25.8268 39.4096 24.9558 41.4385 24.1092 43.7196C23.9982 44.0186 23.7187 44.7677 23.4879 45.3841C22.0164 49.3163 21.2423 52.3747 21.5373 53.0908C21.6664 53.4043 21.9727 53.654 22.4112 53.8033C22.6581 53.8873 22.7196 53.8743 22.8774 53.7039C22.9773 53.5959 23.2074 53.1677 23.3884 52.7523C24.2778 50.7122 25.5849 49.1335 26.2174 49.3354C26.6434 49.4713 26.6582 50.1692 26.261 51.3778C25.4912 53.72 24.2856 55.0937 22.9996 55.0937C22.4646 55.0937 22.4139 55.1927 22.7802 55.5219C23.1475 55.852 23.5508 56 24.083 56C25.9877 56 28.0216 52.8602 27.8234 50.2257C27.7609 49.3935 27.5065 48.9524 26.9262 48.6699C26.0831 48.2595 25.3262 48.539 24.2246 49.6676C23.8416 50.0599 23.507 50.3809 23.481 50.3809C23.2114 50.3809 24.0076 47.9421 25.2417 44.9884C25.2833 44.8887 25.4844 44.3993 25.6885 43.9008C25.8926 43.4024 26.1204 42.8518 26.1948 42.6773C26.2691 42.5028 26.3633 42.2785 26.404 42.1788C26.4446 42.0791 26.5794 41.7529 26.7034 41.4538C27.1147 40.4617 27.1613 40.2431 27.0447 39.8518C26.9742 39.615 26.8429 39.4377 26.6509 39.32C26.313 39.1128 26.2226 39.1036 26.0255 39.256ZM5.41669 39.8721C4.4752 40.1201 3.65845 40.5835 3.62212 40.8903C3.58508 41.2038 3.7447 41.4881 4.01626 41.5918C4.13712 41.6381 4.23609 41.7493 4.23609 41.8389C4.23609 41.9285 3.97615 42.7758 3.65845 43.7217C3.34083 44.6676 2.87234 46.1349 2.61745 46.9823C2.06496 48.8196 1.9459 49.1088 1.73643 49.1225C1.64892 49.1283 1.53671 49.1424 1.48714 49.154C1.43757 49.1656 1.34635 49.1813 1.28435 49.1889C1.10769 49.2106 1.15231 49.6067 1.36168 49.8743C1.59277 50.1697 1.6135 50.0729 0.835861 52.3295C0.207027 54.1541 0 54.8598 0 55.1787C0 55.4104 0.426763 55.9094 0.624958 55.9094C0.965737 55.9094 1.02315 55.7829 1.98186 52.9186C2.34057 51.8469 2.70073 50.8273 2.78212 50.6528L2.93029 50.3356L3.9474 50.3099L4.9646 50.2843L5.15306 50.7178C6.40704 53.6027 7.30121 54.8636 8.57853 55.5482C9.27865 55.9235 10.1582 56.0197 10.6411 55.7737C11.0182 55.5817 11.5366 55.1985 11.5366 55.1117C11.5366 55.0769 11.2426 55.0471 10.8831 55.0455C10.3553 55.0432 10.1417 54.9965 9.7722 54.8027C8.89885 54.3448 7.76529 52.8695 6.86246 51.016C6.36278 49.9902 6.31267 49.772 6.55692 49.684C7.92878 49.1906 9.86954 47.9702 10.9661 46.9117C12.2683 45.6545 12.6242 44.9416 12.6338 43.5707C12.6393 42.7851 12.612 42.6212 12.404 42.1936C12.0151 41.3943 11.0819 40.5635 10.1094 40.1508C8.96563 39.6654 6.71032 39.5314 5.41669 39.8721ZM9.00141 41.1395C10.2569 41.4893 10.9021 41.9972 11.0896 42.7833C11.3566 43.9025 10.9424 44.9085 9.69866 46.1623C8.18754 47.6856 6.61181 48.5212 4.55154 48.8916C3.64835 49.054 3.51505 49.0537 3.51505 48.8897C3.51505 48.8172 3.69585 48.211 3.91676 47.5426C4.48214 45.8322 5.35919 42.8528 5.54107 42.0246C5.62534 41.6407 5.74458 41.2846 5.80596 41.2334C6.18306 40.9187 8.01585 40.8649 9.00141 41.1395ZM16.4312 43.8978C15.992 44.0899 15.7438 44.6542 15.7482 45.4506C15.7502 45.8045 15.7983 46.1813 15.855 46.2878C15.9839 46.5301 16.3586 46.6341 16.5441 46.4794C16.748 46.3091 17.28 45.3647 17.4014 44.9575C17.5383 44.4977 17.3927 44.0155 17.0727 43.8688C16.795 43.7416 16.7876 43.7419 16.4312 43.8978ZM43.8619 44.0367C43.5238 44.3351 43.3523 44.8348 43.3523 45.5211C43.3523 46.0644 43.4622 46.3246 43.7589 46.4843C43.9953 46.6116 44.0154 46.6048 44.255 46.3161C44.3923 46.1507 44.6361 45.755 44.7968 45.4367C45.0423 44.9503 45.0812 44.79 45.0409 44.4303C44.961 43.7176 44.4257 43.5388 43.8619 44.0367ZM61.1392 47.9565C60.5181 48.6199 60.0981 49.2517 59.5311 50.3757C58.9944 51.4396 58.8035 52.0218 58.7216 52.8442C58.632 53.7433 58.7287 54.2034 59.0984 54.6377C59.5411 55.1578 59.8701 55.3079 60.5732 55.3102C61.3503 55.3129 61.9577 55.017 62.8165 54.2176C64.5829 52.573 65.287 50.9 64.5961 49.9892C64.335 49.6449 63.5336 49.0561 63.0231 48.8331C62.7808 48.7274 62.7301 48.6556 62.7301 48.4177C62.7301 48.2594 62.7048 48.0638 62.674 47.9827C62.6085 47.8111 62.004 47.4807 61.7554 47.4807C61.6615 47.4807 61.3841 47.6948 61.1392 47.9565ZM50.3125 47.8659C50.1552 48.0596 49.4397 50.4989 48.9766 52.4201C48.9046 52.7192 48.8099 53.0862 48.7663 53.2358C48.4616 54.2804 48.2937 55.1093 48.3452 55.3155C48.4139 55.5904 48.8814 55.9086 49.2176 55.909C49.5712 55.9095 49.7656 55.6221 50.4262 54.1217C51.2036 52.3558 51.8447 51.3411 52.8325 50.3129C53.3706 49.7529 53.5725 49.7135 53.7129 50.1412C53.9332 50.8125 54.6368 51.3751 55.2588 51.3773C55.4256 51.3779 55.8803 50.981 55.8803 50.8348C55.8803 50.7805 55.715 50.5826 55.513 50.3951C55.2069 50.1109 55.1164 49.9416 54.9694 49.3792C54.7628 48.5881 54.5079 48.2964 54.0232 48.2964C53.8499 48.2964 53.5951 48.3552 53.4568 48.4271C53.1423 48.5907 52.3036 49.4963 51.6743 50.352C50.9244 51.3716 50.8034 51.3642 51.1013 50.3167C51.5184 48.8499 51.5541 48.7039 51.5541 48.4644C51.5541 48.3293 51.4869 48.1512 51.4049 48.0687C51.1041 47.7661 50.4866 47.6516 50.3125 47.8659ZM34.9303 48.2446C32.948 49.0849 31.5438 51.1152 31.5462 53.1374C31.5479 54.6169 32.3165 55.4916 33.8461 55.755C34.9456 55.9444 36.563 55.4514 37.5087 54.6385C37.9079 54.2953 38.7338 53.0476 38.6305 52.9437C38.6022 52.9153 38.4059 53.0522 38.1942 53.2481C37.3831 53.9983 36.3016 54.5291 35.0743 54.7791C34.415 54.9134 34.3042 54.9139 33.8003 54.784C32.9632 54.5684 32.7122 54.3291 32.5801 53.6208C32.5174 53.2848 32.6721 52.556 32.8062 52.556C32.8515 52.556 33.1226 52.6174 33.4088 52.6923C34.3777 52.9461 35.4805 52.5875 36.2388 51.7721C37.3376 50.5905 37.5664 48.8127 36.6938 48.2372C36.3105 47.9844 35.5365 47.9876 34.9303 48.2446ZM42.3452 48.6165C41.83 48.8978 40.6539 52.1691 40.6498 53.3326C40.6454 54.5283 41.3782 55.4705 42.498 55.7093C43.4246 55.9067 44.3101 55.5302 45.4574 54.4508C45.8859 54.0477 46.2364 53.6808 46.2364 53.6354C46.2364 53.4836 45.9407 53.5509 45.6591 53.7669C45.2883 54.0512 44.4124 54.4872 43.8202 54.6823C42.6555 55.066 41.9894 54.3858 42.1812 53.0092C42.3036 52.131 42.3345 52.0278 43.1651 49.7261C43.4057 49.0593 43.4026 48.7952 43.1519 48.6188C42.9054 48.445 42.6604 48.4444 42.3452 48.6165ZM14.635 48.7978C14.3484 49.0859 13.9767 49.9053 13.564 51.1589C12.8265 53.3992 12.9621 54.637 14.0255 55.3727C14.595 55.7668 15.3122 55.8872 15.9608 55.6976C16.6003 55.5106 17.0724 55.1878 17.9001 54.3714C18.847 53.4373 18.8023 53.2754 17.7866 53.9604C16.6546 54.7238 15.4979 55.015 15.0405 54.6519C14.7382 54.4119 14.5108 53.9299 14.5108 53.529C14.5108 53.0671 14.8263 51.8722 15.2816 50.6092C15.8026 49.1641 15.8388 48.9732 15.6352 48.7471C15.4011 48.4869 14.9199 48.5113 14.635 48.7978ZM36.2636 49.1287C36.419 49.3778 36.0055 50.1286 35.3807 50.7319C34.6539 51.4337 33.72 51.9156 33.4326 51.737C33.1732 51.5758 34.6059 49.7343 35.4046 49.2024C35.8513 48.9049 36.1103 48.8826 36.2636 49.1287ZM63.1525 49.9232C63.7492 50.2891 63.7572 50.7418 63.1829 51.6356C62.7628 52.289 61.5789 53.5582 61.0444 53.9281C60.8362 54.0723 60.5458 54.2143 60.3994 54.2438C60.1787 54.2882 60.1057 54.2554 59.9733 54.0522C59.83 53.8322 59.8253 53.7496 59.9272 53.2495C60.0642 52.5773 60.5764 51.4486 61.147 50.5616C61.5128 49.9929 61.5932 49.9169 61.7786 49.9636C61.8954 49.9932 62.1269 49.9579 62.293 49.8854C62.6949 49.71 62.8131 49.7151 63.1525 49.9232Z" fill="#F9F6F1"/>
</svg>
