<svg width="28" height="28" viewBox="0 0 28 28" fill="none" xmlns="http://www.w3.org/2000/svg">
<path d="M25.3333 13.6667H22.44C21.9301 13.6656 21.4339 13.8315 21.0273 14.1391C20.6207 14.4467 20.326 14.8791 20.1883 15.37L17.4467 25.1233C17.429 25.1839 17.3922 25.2371 17.3417 25.275C17.2912 25.3129 17.2298 25.3333 17.1667 25.3333C17.1036 25.3333 17.0422 25.3129 16.9917 25.275C16.9412 25.2371 16.9043 25.1839 16.8867 25.1233L10.4467 2.21C10.429 2.14942 10.3922 2.0962 10.3417 2.05833C10.2912 2.02047 10.2298 2 10.1667 2C10.1036 2 10.0422 2.02047 9.99167 2.05833C9.94118 2.0962 9.90434 2.14942 9.88667 2.21L7.145 11.9633C7.00788 12.4523 6.71494 12.8833 6.31067 13.1907C5.9064 13.4981 5.41287 13.6652 4.905 13.6667H2" stroke="white" stroke-width="2.33333" stroke-linecap="round" stroke-linejoin="round"/>
</svg>
