<svg width="28" height="28" viewBox="0 0 28 28" fill="none" xmlns="http://www.w3.org/2000/svg">
<path d="M23.3327 15.1667C23.3327 21 19.2493 23.9167 14.396 25.6083C14.1419 25.6945 13.8658 25.6903 13.6143 25.5967C8.74935 23.9167 4.66602 21 4.66602 15.1667V7.00002C4.66602 6.6906 4.78893 6.39385 5.00772 6.17506C5.22652 5.95627 5.52326 5.83335 5.83268 5.83335C8.16602 5.83335 11.0827 4.43335 13.1127 2.66002C13.3598 2.44885 13.6743 2.33282 13.9993 2.33282C14.3244 2.33282 14.6389 2.44885 14.886 2.66002C16.9277 4.44502 19.8327 5.83335 22.166 5.83335C22.4754 5.83335 22.7722 5.95627 22.991 6.17506C23.2098 6.39385 23.3327 6.6906 23.3327 7.00002V15.1667Z" stroke="white" stroke-width="2.33333" stroke-linecap="round" stroke-linejoin="round"/>
</svg>
