<svg width="25" height="25" viewBox="0 0 25 25" fill="none" xmlns="http://www.w3.org/2000/svg">
<path fill-rule="evenodd" clip-rule="evenodd" d="M10.1928 0.742287C3.02146 2.37689 -0.907449 10.0991 2.09511 16.6577L2.58565 17.7292L1.81343 20.4865C1.38859 22.0028 1.04102 23.3264 1.04102 23.4277C1.04102 23.5289 2.37313 23.2626 4.00138 22.8357L6.96174 22.0596L8.26419 22.5806C10.2344 23.3688 12.547 23.6029 14.5219 23.2139C16.9906 22.7274 18.7412 21.7951 20.4945 20.0325C24.4629 16.0435 25.0844 10.2195 22.0296 5.65208C20.3792 3.18476 18.2048 1.63184 15.3928 0.912607C13.8017 0.505689 11.5536 0.432089 10.1928 0.742287ZM15.7374 3.00557C19.9517 4.50184 22.6373 9.07408 21.8834 13.4696C20.7996 19.7898 13.9801 23.3089 8.32276 20.4672L7.31799 19.9626L5.63406 20.4021C4.7079 20.6437 3.90755 20.7988 3.85534 20.7468C3.80332 20.6945 3.96747 19.9194 4.22006 19.0239L4.67958 17.3959L4.30156 16.7845C3.68848 15.7925 3.15556 14.0149 3.03784 12.5697C2.81377 9.82009 3.89194 7.10962 5.9905 5.14651C7.35922 3.86623 8.29116 3.32232 10.0001 2.80635C11.5084 2.35127 14.1527 2.44298 15.7374 3.00557ZM7.51759 7.27994C6.76965 8.16911 6.54943 9.21993 6.87697 10.3374C7.91469 13.8773 13.2487 17.9463 16.1403 17.4037C17.1597 17.2126 18.1722 16.2281 18.2356 15.3665C18.2824 14.7282 18.2283 14.6648 17.1289 14.0713C16.4931 13.7282 15.8186 13.4452 15.6297 13.4421C15.4411 13.4392 15.0203 13.7401 14.6947 14.111C14.3691 14.4819 13.9481 14.7854 13.7591 14.7854C12.8148 14.7854 9.71113 11.9859 9.71113 11.1341C9.71113 11.0089 9.9275 10.6226 10.192 10.2759L10.6727 9.64554L10.1728 8.41014C9.53369 6.83122 9.41096 6.69326 8.6449 6.69326C8.17537 6.69326 7.88347 6.84509 7.51759 7.27994Z" fill="#395346"/>
</svg>
