<?xml version="1.0" standalone="no"?>
<!DOCTYPE svg PUBLIC "-//W3C//DTD SVG 20010904//EN"
 "http://www.w3.org/TR/2001/REC-SVG-20010904/DTD/svg10.dtd">
<svg version="1.0" xmlns="http://www.w3.org/2000/svg"
 width="512.000000pt" height="512.000000pt" viewBox="0 0 512.000000 512.000000"
 preserveAspectRatio="xMidYMid meet">

<g transform="translate(0.000000,512.000000) scale(0.100000,-0.100000)"
fill="#ffffff" stroke="none">
<path d="M3621 5104 c-79 -21 -145 -60 -202 -121 -195 -206 -131 -537 128
-665 64 -31 73 -33 178 -33 103 0 114 2 177 32 258 122 323 460 129 666 -108
115 -264 160 -410 121z"/>
<path d="M1754 4822 c-299 -106 -386 -472 -165 -693 205 -205 543 -146 672
116 32 66 34 75 34 175 -1 145 -23 200 -119 296 -89 89 -150 115 -281 121 -69
3 -102 -1 -141 -15z"/>
<path d="M1262 4133 c-18 -10 -174 -136 -346 -280 -336 -281 -357 -303 -355
-389 0 -21 28 -201 62 -398 l63 -360 -42 -41 c-22 -23 -54 -68 -70 -101 l-29
-59 0 -222 c0 -218 0 -222 23 -246 30 -32 65 -41 108 -27 58 19 64 44 64 254
0 102 4 187 9 190 5 3 15 -2 22 -11 43 -51 161 -68 229 -33 l40 20 0 -1183 0
-1183 21 -23 c49 -52 124 -46 160 13 18 30 19 65 19 1211 0 1300 2 1248 -61
1347 -17 26 -42 56 -56 66 -24 17 -29 38 -79 333 -29 173 -55 326 -58 341 -5
24 11 40 174 177 99 83 182 151 185 151 3 0 5 -769 5 -1709 0 -1104 4 -1727
10 -1762 12 -65 51 -123 109 -164 39 -27 50 -30 125 -30 74 0 87 3 132 30 30
19 60 49 79 79 l30 49 3 1019 2 1018 55 0 55 0 0 -1013 0 -1013 26 -52 c53
-106 170 -155 288 -120 55 16 140 101 155 154 8 27 11 569 11 1812 0 1938 -4
1801 57 1748 l28 -24 5 -795 5 -795 31 -39 c88 -111 239 -111 328 0 l31 39 3
271 c3 287 3 287 -44 287 -38 0 -143 60 -179 102 -98 116 -99 300 -1 414 39
46 110 87 179 104 l47 12 0 192 c0 221 -10 293 -50 382 -33 73 -121 172 -188
211 -70 41 -155 63 -247 63 l-83 0 -38 -51 c-67 -92 -189 -171 -304 -200 -67
-16 -199 -16 -260 1 -113 30 -222 104 -294 197 l-41 53 -60 0 c-38 0 -72 -6
-93 -17z"/>
<path d="M2878 4085 c79 -86 130 -190 157 -317 5 -28 7 -28 80 -28 l75 0 0
-185 c0 -111 4 -185 10 -185 5 0 119 27 254 60 l245 59 128 89 c70 48 151 103
178 122 l50 34 -29 -34 c-16 -19 -83 -98 -150 -175 l-122 -140 -449 -108
c-483 -115 -502 -122 -546 -194 -19 -30 -24 -52 -24 -105 0 -58 4 -72 30 -109
37 -53 103 -89 163 -89 67 0 997 225 1043 252 50 31 556 619 583 678 14 33 20
66 20 120 0 100 -28 163 -100 229 -93 85 -47 81 -897 81 l-749 0 50 -55z"/>
<path d="M4175 3076 c-49 -59 -111 -121 -137 -137 -48 -31 -115 -49 -645 -175
l-203 -48 0 -1250 c0 -831 4 -1264 10 -1288 16 -56 69 -119 125 -147 122 -63
273 -7 332 124 17 38 18 102 21 1042 l3 1003 49 0 50 0 2 -1013 3 -1014 30
-48 c86 -139 263 -163 379 -51 82 80 76 -40 74 1630 l-3 1478 -90 -106z"/>
</g>
</svg>
