<svg width="22" height="21" viewBox="0 0 22 21" fill="none" xmlns="http://www.w3.org/2000/svg">
<path d="M12.8315 14.3885C13.038 14.4757 13.2707 14.4956 13.4911 14.445C13.7116 14.3944 13.9067 14.2763 14.0444 14.1101L14.3993 13.6828C14.5856 13.4545 14.8271 13.2693 15.1048 13.1417C15.3824 13.0141 15.6886 12.9476 15.9991 12.9476H18.9986C19.529 12.9476 20.0376 13.1413 20.4126 13.4859C20.7876 13.8306 20.9983 14.2981 20.9983 14.7855V17.5423C20.9983 18.0298 20.7876 18.4973 20.4126 18.8419C20.0376 19.1866 19.529 19.3802 18.9986 19.3802C14.2254 19.3802 9.64775 17.6375 6.27261 14.5355C2.89747 11.4334 1.00133 7.22617 1.00133 2.83922C1.00133 2.35178 1.21202 1.88431 1.58703 1.53964C1.96205 1.19497 2.47068 1.00133 3.00103 1.00133H6.00057C6.53093 1.00133 7.03956 1.19497 7.41457 1.53964C7.78959 1.88431 8.00027 2.35178 8.00027 2.83922V5.59606C8.00027 5.88138 7.92799 6.16279 7.78916 6.41799C7.65032 6.67319 7.44875 6.89518 7.20039 7.06637L6.73246 7.38892C6.54891 7.51774 6.41953 7.70098 6.36631 7.90753C6.31309 8.11408 6.33931 8.33119 6.44051 8.52198C7.80698 11.0728 10.0544 13.1358 12.8315 14.3885Z" stroke="#395346" stroke-width="2" stroke-linecap="round" stroke-linejoin="round"/>
</svg>
