<svg width="24" height="24" viewBox="0 0 24 24" fill="none" xmlns="http://www.w3.org/2000/svg">
<path fill-rule="evenodd" clip-rule="evenodd" d="M9.54754 0.212127C6.96195 0.805996 5.42735 1.66602 3.47908 3.61308C1.04531 6.04559 0 8.56337 0 11.9937C0 15.1912 0.996914 17.7632 3.12214 20.0485C5.34908 22.4433 8.15189 23.7864 11.3243 23.9791C16.9693 24.3219 22.322 20.4108 23.7242 14.9188C24.0919 13.4785 24.0919 10.5089 23.7242 9.06858C23.1892 6.97282 22.1972 5.27761 20.5316 3.61308C18.8457 1.92823 17.8227 1.28486 15.6924 0.570142C13.9396 -0.0178912 11.2357 -0.175441 9.54754 0.212127ZM14.7452 1.73228C19.9088 3.10034 23.3141 8.2366 22.5445 13.4952C21.7778 18.731 17.3527 22.5391 12.0428 22.5324C11.0863 22.5312 9.83642 22.4064 9.26546 22.2551C4.0871 20.8831 0.696119 15.7525 1.4707 10.4611C2.07096 6.36144 5.1931 2.83098 9.18227 1.74113C10.4441 1.39648 13.4594 1.39158 14.7452 1.73228ZM10.8969 5.8696C9.54602 6.34902 8.50771 7.68904 8.50771 8.95282C8.50771 9.62781 8.9779 10.0762 9.40461 9.80814C9.56871 9.70518 9.82035 9.21973 9.96404 8.7292C10.3968 7.25121 11.8639 6.67089 13.1675 7.46222C13.9318 7.92639 14.2914 8.92138 14.0056 9.78198C13.8923 10.123 13.3743 10.7606 12.8347 11.2229C12.3025 11.679 11.7491 12.3327 11.6053 12.6756C11.2421 13.5409 11.2634 15.0814 11.6431 15.395C12.0641 15.7429 12.5598 15.3928 12.6211 14.704C12.7362 13.4103 13.0474 12.8036 14.0109 11.9948C14.544 11.5472 15.0978 10.9008 15.2415 10.5582C15.5736 9.76692 15.5761 8.57974 15.2475 7.79652C14.9098 6.99202 13.7972 6.039 12.9085 5.79336C12.0049 5.54358 11.7928 5.55167 10.8969 5.8696ZM11.5402 17.161C11.0396 17.7615 11.7783 18.7054 12.3676 18.2185C12.7232 17.9245 12.7559 17.4279 12.4402 17.1136C12.1371 16.8118 11.8172 16.8286 11.5402 17.161Z" fill="white"/>
</svg>
