<svg width="48" height="49" viewBox="0 0 48 49" fill="none" xmlns="http://www.w3.org/2000/svg">
<path fill-rule="evenodd" clip-rule="evenodd" d="M20.0216 0.274177C16.8079 1.34711 14.6357 3.17328 13.2576 5.96084C12.1971 8.10633 12.2353 8.47202 13.7922 11.0702C15.1435 13.3257 17.0366 17.6623 17.5084 19.5843C17.651 20.1643 17.8933 20.6385 18.0472 20.6385C18.2011 20.6385 20.1997 18.9411 22.4886 16.8669C24.7772 14.7923 27.0188 12.8949 27.4699 12.6503C28.783 11.9377 30.3948 12.1313 31.9272 13.1854L33.3518 14.1656L33.1794 10.9813C32.9219 6.22189 31.0753 3.07438 27.4468 1.21026C25.3946 0.156112 21.7517 -0.303114 20.0216 0.274177ZM39.115 0.681654C34.4959 3.08243 34.5654 9.56412 39.2352 11.8744C43.3182 13.8946 48 10.8973 48 6.26367C48 1.60931 43.1692 -1.4255 39.115 0.681654ZM5.99835 9.61779C4.31852 11.9511 1.7169 17.3257 0.783406 20.3912C-0.618918 24.9957 -0.100939 31.2597 2.03563 35.5342C2.91657 37.2971 5.27129 39.8048 6.04562 39.8048C6.24978 39.8048 6.41047 41.1564 6.41047 42.8715V45.9381H3.92795C2.56268 45.9381 1.1165 46.1167 0.714216 46.3348C-0.167482 46.8132 -0.256711 48.4462 0.581129 48.772C1.36226 49.076 46.6207 49.076 47.4019 48.772C47.7308 48.644 48 48.1326 48 47.6354C48 46.6687 47.034 45.9381 45.7564 45.9381C44.9976 45.9381 44.9753 45.7518 44.9753 39.4215C44.9753 35.8374 45.0626 32.9049 45.1696 32.9049C45.2763 32.9049 45.6876 33.11 46.0839 33.3611C46.6491 33.7187 46.9334 33.7088 47.4022 33.3139C48.4601 32.4239 48.0499 31.4682 45.7315 29.4239L43.463 27.4234V23.2777C43.463 19.6989 43.3711 19.0821 42.7915 18.7678C42.3658 18.5367 41.8818 18.5386 41.4682 18.7732C40.9487 19.0683 40.8164 19.684 40.8164 21.8076C40.8164 23.2727 40.6886 24.4702 40.5328 24.4679C40.377 24.466 37.9523 22.3975 35.1451 19.8718C32.255 17.2713 29.7127 15.2784 29.2847 15.2772C28.2745 15.2746 10.5694 31.2179 10.5694 32.1302C10.5694 33.2304 11.6231 33.907 12.4856 33.3611C12.8818 33.11 13.2932 32.9049 13.3998 32.9049C13.5068 32.9049 13.5941 35.8374 13.5941 39.4215V45.9381H11.3256H9.05708V42.9332C9.05708 40.0996 9.11114 39.903 10.0023 39.4913C11.4485 38.8231 11.3305 36.7704 9.7951 35.8845C9.15689 35.5162 8.38635 34.5889 8.05931 33.7946C7.06721 31.3877 7.71903 30.1335 11.881 26.439C13.8629 24.6795 15.4845 23.073 15.4845 22.8694C15.4845 21.7984 13.3302 16.2156 11.8561 13.4668C9.95617 9.92368 8.48881 7.98864 7.70239 7.98864C7.41051 7.98864 6.64337 8.72195 5.99835 9.61779ZM25.6173 32.9816C25.933 33.3017 26.071 35.3414 26.071 39.6898V45.9381H24.5586H23.0463V40.7632V35.5882H21.723H20.3997V40.7632V45.9381H18.8873H17.375V39.8321C17.375 32.315 17.2479 32.5216 21.8632 32.5216C23.9261 32.5216 25.3337 32.6941 25.6173 32.9816ZM39.8401 32.7543C40.3362 32.9471 40.4383 33.7187 40.4383 37.2776C40.4383 40.1034 40.2833 41.7253 39.9846 42.0281C39.4167 42.6039 32.7563 42.6549 31.7173 42.0914C31.064 41.7368 30.9861 41.2553 30.9861 37.5681C30.9861 34.8699 31.143 33.2825 31.4398 32.9816C31.9151 32.4998 38.7127 32.3158 39.8401 32.7543ZM33.6327 37.5049V39.4215H35.7122H37.7917V37.5049V35.5882H35.7122H33.6327V37.5049Z" fill="#F9F6F1"/>
</svg>
