<svg width="353" height="178" viewBox="0 0 353 178" fill="none" xmlns="http://www.w3.org/2000/svg">
<path d="M272 86.3853L284.028 70L280.193 80.1101L286.468 77.3211L279.67 91.789L286.991 89.3486L281.239 102.596L285.596 100.156L279.147 127L280.716 105.211L276.532 106.431L281.239 94.2294L274.092 96.6697L279.147 83.7706L274.963 86.9083L272 86.3853Z" fill="#DDA010"/>
<path fill-rule="evenodd" clip-rule="evenodd" d="M238.783 10.3793C235.73 11.2005 235.828 11.1372 219.33 22.9724C214.378 26.5253 204.489 33.5938 197.356 38.6801C190.223 43.7666 184 48.2891 183.527 48.7304C181.275 50.8333 183.637 54.1863 186.431 52.8533C186.913 52.6235 189.681 50.7265 192.581 48.6378C195.482 46.5491 198.551 44.3451 199.401 43.7401C200.252 43.1354 203.058 41.1169 205.636 39.2549C208.215 37.3929 211.061 35.3616 211.961 34.7407C212.86 34.12 215.813 32.0019 218.521 30.0339C226.657 24.1234 227.881 23.2423 232.781 19.7697C238.367 15.8112 239.554 15.2683 242.614 15.2701C245.252 15.2716 245.597 15.4294 249.977 18.63C251.692 19.8834 254.619 22.0089 256.481 23.3535C258.343 24.698 260.818 26.5019 261.982 27.3618C263.145 28.2218 265.602 30.0095 267.441 31.3347C269.281 32.6597 271.828 34.5124 273.101 35.4522C274.375 36.3917 277.42 38.599 279.869 40.3571C282.318 42.1151 284.923 43.9892 285.658 44.5216C286.393 45.054 287.284 45.6894 287.638 45.9333C287.991 46.1775 290.133 47.7004 292.396 49.3177C294.66 50.935 296.859 52.4704 297.284 52.7298C299.91 54.3314 302.809 51.4167 300.875 49.1185C300.515 48.69 298.367 47.0311 296.103 45.4318C293.839 43.8328 290.168 41.2024 287.946 39.5869C285.725 37.9711 281.649 35.0286 278.89 33.0475C272.6 28.5319 265.065 23.0475 262.038 20.783C255.306 15.7459 249.775 11.8801 248.403 11.254C247.554 10.8665 246.245 10.4197 245.496 10.261C243.647 9.86984 240.469 9.92568 238.783 10.3793ZM197.413 57.8395C195.278 59.6938 195.034 59.999 194.89 60.9869C194.803 61.5888 194.77 74.3555 194.817 89.3576L194.902 116.634L195.49 118.564C197.141 123.985 200.812 127.708 205.895 129.117C207.687 129.614 208.578 129.629 235.727 129.629C251.118 129.629 263.708 129.542 263.704 129.436C263.701 129.33 262.673 128.143 261.421 126.799L259.144 124.354L233.319 124.225L207.495 124.097L206.011 123.401C204.428 122.659 202.044 120.478 201.351 119.137C200.179 116.871 200.163 116.413 200.163 85.2237C200.163 69.0278 200.076 55.7789 199.97 55.7814C199.864 55.784 198.713 56.7104 197.413 57.8395ZM95.2878 57.9795C93.8185 60.2224 87.2224 77.7375 85.0214 85.2404C83.9861 88.7696 83.9091 89.1147 83.3681 92.6573C82.7226 96.8836 82.8191 97.4047 84.4865 98.6916C85.5393 99.5045 86.5432 99.4399 87.2 98.5174C87.4925 98.1062 87.7321 97.6955 87.7321 97.6046C87.7321 97.3146 89.9071 93.0253 91.0085 91.1429C92.1583 89.1782 93.8772 87.4215 95.3256 86.7306C96.2096 86.3091 96.2513 86.3129 96.8076 86.8698C97.5943 87.6572 97.538 89.2969 96.629 92.066C95.0614 96.8414 93.0786 100.114 90.7327 101.797C89.6472 102.576 89.2449 102.706 87.581 102.812C86.5321 102.88 85.6738 103.014 85.6738 103.11C85.6738 103.421 87.0624 104.596 87.9893 105.07C89.3413 105.76 91.679 105.69 93.2368 104.912C96.8325 103.116 100.715 96.4608 101.214 91.2389C101.44 88.8777 101.178 87.5579 100.233 86.3047C99.1112 84.8163 97.4703 84.0088 95.9145 84.1797C94.1802 84.3698 93.2772 84.9216 90.885 87.2514C89.7185 88.3877 88.6917 89.2451 88.6032 89.1566C88.1023 88.6556 91.8822 77.1814 94.5561 71.0874C97.0069 65.5017 98.795 60.7695 98.795 59.8696C98.795 57.7806 96.2994 56.4356 95.2878 57.9795ZM26.3711 58.8809C23.7687 59.7983 20.9463 61.6691 18.1073 64.3586C10.7211 71.3558 4.74422 81.5761 2.43489 91.1589C2.12847 92.4298 1.99931 94.0968 1.99571 96.8201C1.99134 100.205 2.06209 100.87 2.57124 102.224C3.71176 105.258 6.03164 107.646 8.57356 108.4C12.3514 109.523 18.345 106.508 26.8702 99.1965C28.6709 97.6522 29.8078 97.1142 29.6707 97.8712C29.0318 101.395 28.4061 110.213 28.6796 111.833C28.9796 113.608 31.0458 115.1 31.7914 114.081C31.9692 113.838 32.184 112.518 32.2687 111.148C32.5779 106.148 33.0976 101.89 34.1118 96.0481C35.1227 90.224 35.3285 89.627 36.5189 89.0681C37.6368 88.5429 37.811 88.2995 37.8161 87.2529C37.8238 85.6377 36.6115 85.1915 33.3176 85.5975C31.0132 85.8814 26.4632 86.7043 23.9269 87.2956C23.0072 87.51 21.6757 87.8026 20.9682 87.9457C18.0756 88.5306 16.9804 88.9603 16.9804 89.5104C16.9804 90.3298 17.4378 90.9875 18.3275 91.4476C19.3857 91.9949 22.1028 91.8081 25.6329 90.945C29.4697 90.0073 30.1016 89.9191 30.1016 90.3208C30.1016 90.5094 28.6835 92.0757 26.9499 93.8014C22.2551 98.4754 17.7257 101.986 13.9214 103.9C12.1207 104.806 11.4947 104.992 10.1455 105.021C8.22237 105.061 7.42223 104.592 6.43197 102.844C5.8199 101.764 5.78877 101.51 5.78877 97.592C5.78877 92.6272 6.29484 89.9767 8.14673 85.2404C11.4767 76.7242 17.9629 68.2584 24.4664 63.9405C27.9487 61.6284 29.7399 61.1868 31.052 62.3167C31.7292 62.8996 31.7739 63.0633 31.7719 64.9543C31.7701 66.6149 31.5905 67.5065 30.752 70.0126C29.8039 72.846 29.7605 73.1018 30.1171 73.7374C30.6555 74.6972 31.7662 75.2868 32.3505 74.9232C33.9024 73.9577 35.7617 68.6933 35.7617 65.2644C35.7617 61.4668 33.3372 58.8181 29.5531 58.4823C28.2703 58.3683 27.5798 58.4548 26.3711 58.8809ZM262.038 67.6442C248.608 68.684 240.917 83.2989 247.429 95.4048C248.523 97.4374 250.605 99.9461 256.401 106.212C257.121 106.991 258.221 108.207 258.844 108.914C259.468 109.622 260.738 111.012 261.668 112.002C262.597 112.993 264.045 114.555 264.885 115.473C267.053 117.843 270.267 121.302 274.572 125.898C275.367 126.747 276.335 127.789 276.722 128.214C278.227 129.862 279.701 130.32 280.869 129.502C281.489 129.067 283.414 127.046 291.883 117.939C293.581 116.113 295.089 114.494 295.236 114.34C295.94 113.6 307.949 100.329 308.744 99.4129C311.998 95.6639 313.127 93.3101 313.768 88.9361C314.699 82.5845 312.827 77.0867 308.17 72.5022C302.76 67.1763 293.097 65.9749 286 69.7458C283.435 71.1086 281.101 73.532 282.354 73.532C282.864 73.532 283.264 74.3447 283.264 75.3807C283.263 76.3827 282.091 78.9766 281.117 80.1309C280.741 80.5761 280.434 81.0102 280.434 81.0959C280.434 81.6772 281.45 80.8615 284.032 78.2071C287.182 74.9692 288.749 73.9427 291.766 73.1396C296.291 71.9353 301.84 73.5266 305.038 76.9457C307.742 79.8376 308.931 83.2096 308.668 87.2455C308.376 91.7399 307.452 93.1864 299.103 102.224C297.665 103.781 295.32 106.328 293.893 107.885C289.534 112.641 284.265 118.167 283.881 118.385C283.456 118.627 283.007 118.411 283.007 117.966C283.007 117.795 283.529 117.149 284.169 116.529C285.452 115.285 285.715 114.628 285.494 113.211C285.386 112.52 285.037 111.978 284.219 111.23C282.981 110.1 281.198 109.422 277.167 108.548C273.891 107.839 272.201 106.601 272.201 104.911C272.201 103.889 273.928 102.547 276.068 101.905C278.825 101.078 281.529 100.576 281.978 100.807C282.19 100.917 283.058 101.157 283.907 101.341C285.627 101.713 286.346 102.082 287.573 103.221C288.514 104.094 288.706 105.418 288.031 106.381C287.552 107.064 285.42 108.436 284.472 108.67C283.925 108.806 283.77 108.98 283.829 109.396C283.945 110.213 284.8 110.199 286.647 109.35C288.604 108.45 289.551 107.492 289.941 106.019C290.546 103.731 289.254 101.844 286.021 100.294C285.283 99.9401 284.679 99.5348 284.679 99.3933C284.679 99.2518 285.895 98.7248 287.38 98.2222C290.488 97.1713 291.285 96.7094 292.007 95.5406C293.411 93.269 291.98 90.9911 288.224 89.5151C287.56 89.2544 286.976 88.9165 286.925 88.7639C286.834 88.4889 289.114 87.685 289.987 87.685C290.9 87.685 294.53 86.3827 295.578 85.6789C299.385 83.1213 298.583 78.7516 294.162 77.965C292.478 77.6655 289.736 78.0216 288.212 78.738C287.152 79.2362 287.096 79.3088 287.525 79.623C287.847 79.8579 288.868 79.9652 290.787 79.9652C293.849 79.9652 294.922 80.2905 295.185 81.2981C295.607 82.9095 292.896 84.7607 288.909 85.5839C287.714 85.8307 286.484 86.1727 286.175 86.3441C285.866 86.5154 285.229 86.6608 284.76 86.667C284.291 86.6732 283.444 86.8451 282.878 87.0491C281.559 87.5241 280.723 87.5224 279.573 87.0417C279.065 86.8294 278.211 86.6557 277.676 86.6554C275.578 86.6549 268.469 84.8711 266.899 83.9512C265.664 83.2271 264.881 82.0246 265.131 81.2361C265.431 80.2912 266.573 79.9652 269.584 79.9652C271.654 79.9652 272.473 79.872 272.688 79.6116C273.357 78.8059 270.654 77.8724 267.555 77.8389C265.862 77.8206 265.414 77.9146 264.422 78.4966C262.263 79.7619 261.803 82.3257 263.38 84.2947C264.524 85.7218 267.412 87.0805 270.722 87.7478C272.298 88.0656 273.487 88.4317 273.487 88.5993C273.487 88.7611 272.628 89.3185 271.577 89.8378C269.446 90.891 268.444 91.8938 268.195 93.2234C267.949 94.5335 268.262 95.4091 269.346 96.44C270.297 97.345 270.484 97.4173 275.481 98.8141C276.083 98.9821 276.575 99.1913 276.575 99.2788C276.575 99.3663 275.606 99.918 274.421 100.505C270.509 102.444 269.361 105.233 271.482 107.648C272.55 108.866 275.598 110.336 278.633 111.099C280.416 111.548 282.036 112.183 282.794 112.731C285.064 114.372 282.377 117.587 279.614 116.536C279.287 116.412 278.903 116.283 278.762 116.251C278.365 116.16 277.221 115.301 276.543 114.585C275.846 113.851 275.546 113.767 275.546 114.306C275.546 115.148 276.217 116.043 277.39 116.765C278.074 117.186 278.633 117.644 278.633 117.784C278.633 117.923 278.315 118.24 277.925 118.488C277.536 118.735 277.125 119.085 277.012 119.266C276.445 120.17 275.625 119.439 268.728 111.883C268.02 111.108 267.325 110.342 267.184 110.18C266.762 109.696 260.475 102.769 257.056 99.0212C252.165 93.6588 251.112 91.8115 250.578 87.6603C249.93 82.6087 252.169 77.7934 256.529 74.8653C257.41 74.2734 258.321 73.7894 258.554 73.7894C258.786 73.7894 259.087 73.6893 259.221 73.567C259.683 73.1468 261.883 72.7601 263.812 72.7601C266.314 72.7601 268.04 73.1355 270.3 74.1712C271.852 74.8825 272.597 75.4836 275.204 78.1307C277.057 80.0128 278.475 81.2503 278.777 81.2477C279.119 81.2451 279.742 80.5323 280.755 78.9822C281.939 77.1724 282.235 76.5129 282.235 75.681C282.235 74.1381 281.696 73.7672 279.977 74.1254L278.62 74.4085L277.411 73.0272C274.021 69.1508 268.328 67.1573 262.038 67.6442ZM150.046 71.0476C148.962 71.6494 148.396 72.9657 148.26 75.1995C148.148 77.0417 148.195 77.3392 148.697 77.9709C149.742 79.2871 150.268 78.9114 152.183 75.4813C153.118 73.8066 153.15 72.0547 152.26 71.2261C151.62 70.6294 150.904 70.5715 150.046 71.0476ZM117.386 82.1934C117.027 82.3385 116.509 83.3892 115.947 85.1117C115.445 86.6508 113.773 92.9542 113.183 95.5334C112.924 96.6657 112.466 98.3447 112.165 99.2646C111.864 100.185 111.555 101.585 111.478 102.377C111.348 103.708 111.391 103.866 112.056 104.483C113.642 105.953 114.909 105.526 115.957 103.167C117.535 99.6151 119.93 94.8842 120.916 93.3721C122.357 91.1599 125.588 87.8736 126.12 88.0779C126.342 88.1631 126.712 88.7266 126.943 89.3303C127.713 91.3462 129.957 92.8428 131.392 92.2973C131.788 92.1468 132.315 91.84 132.562 91.6156C133.032 91.1905 133.189 90.0009 132.776 90.0009C132.645 90.0009 132.193 89.7104 131.771 89.3553C131.232 88.9021 130.843 88.1824 130.467 86.9416C129.841 84.8801 129.32 84.156 128.253 83.8637C126.411 83.3588 124.359 84.8889 121.23 89.1003C120.179 90.5156 119.226 91.7085 119.114 91.7515C118.593 91.9502 118.688 91.162 119.482 88.6885C120.67 84.9869 120.79 84.1848 120.273 83.3964C120.042 83.0423 119.459 82.5889 118.98 82.3882C118.062 82.0048 117.901 81.9852 117.386 82.1934ZM172.839 83.0271C170.798 83.6913 169.295 84.6262 167.365 86.4321C163.276 90.258 161.222 96.0195 162.464 100.183C163.212 102.69 165.206 104.207 168.696 104.921C172.266 105.652 177.692 103.697 180.189 100.78C181.187 99.6141 182.752 96.9467 182.554 96.749C182.493 96.6875 181.783 97.1747 180.976 97.8316C177.517 100.65 174.131 102.1 170.559 102.292C168.67 102.394 168.201 102.332 167.282 101.864C165.734 101.074 165.303 100.276 165.302 98.1967C165.301 96.001 165.543 95.7169 167.03 96.1652C169.892 97.0277 172.966 96.1649 175.219 93.8667C178.096 90.9309 179.234 86.9027 177.908 84.3397C177.127 82.8277 175.08 82.2979 172.839 83.0271ZM221.757 82.821C219.713 83.1272 218.002 84.2185 215.365 86.897C212.614 89.6929 210.597 92.6997 209.257 96.0048C208.201 98.608 208.118 100.427 208.983 101.967C209.815 103.447 210.94 103.955 213.086 103.819C215.297 103.678 216.852 102.774 219.917 99.8449C221.138 98.6779 222.212 97.8095 222.303 97.915C222.394 98.0205 222.658 98.9013 222.89 99.8727C223.403 102.019 224.099 103.199 225.417 104.154C228.252 106.208 232.075 105.54 235.018 102.476C236.28 101.162 237.669 98.8653 237.378 98.574C237.299 98.4952 236.506 98.9831 235.615 99.6581C233.775 101.052 231.299 102.263 229.802 102.503C228.546 102.704 227.117 102.09 226.698 101.17C226.025 99.6928 226.766 95.4655 228.476 91.0282C230.871 84.8104 230.911 84.5389 229.554 83.7481C228.598 83.1913 226.878 83.05 226.723 83.5155C226.579 83.9465 225.876 83.9025 225.533 83.4409C225.149 82.9242 223.202 82.6046 221.757 82.821ZM56.6013 83.4455C53.8634 84.7448 48.831 90.6224 47.0228 94.6328C46.0153 96.8674 45.7591 97.8563 45.7323 99.6136C45.7025 101.589 46.2839 102.779 47.6053 103.446C48.628 103.962 50.7076 104.036 51.9963 103.602C53.169 103.208 56.3528 100.767 57.8913 99.083C58.5759 98.3336 59.2528 97.7207 59.3951 97.7207C59.6838 97.7207 59.8351 98.1368 60.0959 99.6506C60.8927 104.273 65.1574 106.449 69.5219 104.459C71.1991 103.694 72.715 102.279 73.9458 100.328C74.5568 99.3604 74.8069 98.4927 74.4747 98.4927C74.3996 98.4927 73.734 98.9741 72.9954 99.5626C69.8903 102.036 65.807 103.182 64.5572 101.932C63.7655 101.141 63.4949 99.5423 63.8098 97.5182C64.0848 95.7504 64.6801 93.3647 65.0756 92.4455C65.1973 92.1625 65.436 91.5256 65.6061 91.0302C65.7761 90.5349 66.0182 89.898 66.1441 89.6149C66.8168 88.1021 67.6643 85.5389 67.6643 85.017C67.6643 83.6645 65.444 82.7397 63.9261 83.4599C63.0634 83.8693 62.9914 83.8668 62.4848 83.4085C62.0819 83.0436 61.4716 82.9075 59.984 82.8501C58.3004 82.7852 57.8121 82.8712 56.6013 83.4455ZM145.022 84.6406C144.349 85.1421 142.79 88.0468 142.79 88.7979C142.79 88.9783 142.692 89.2359 142.573 89.3705C142.454 89.5048 142.105 90.4834 141.798 91.5449C141.49 92.6063 141.117 93.8222 140.969 94.2468C140.821 94.6714 140.633 96.1417 140.55 97.5143C140.409 99.8704 140.44 100.091 141.109 101.457C141.946 103.17 143.284 104.241 145.325 104.835C146.529 105.185 146.934 105.197 148.103 104.916C149.901 104.485 151.561 103.506 153.525 101.719C156.394 99.1095 156.945 97.6437 154.4 99.3951C152.766 100.519 150.043 101.778 148.481 102.131C146.974 102.472 146.162 102.177 145.222 100.944C144.539 100.049 144.521 99.9443 144.681 97.776C144.886 95.0072 145.835 91.5088 147.191 88.5259C147.958 86.8394 148.105 85.211 147.545 84.5924C146.951 83.9357 145.941 83.955 145.022 84.6406ZM175.614 86.0057C176.014 87.6016 173.138 91.2798 170.491 92.5549C168.744 93.3966 167.716 93.623 167.57 93.1984C167.297 92.3997 171.606 87.1562 173.656 85.7923C174.611 85.157 175.423 85.2455 175.614 86.0057ZM61.4626 86.6335C61.9296 86.9292 61.7034 88.0833 60.8068 89.9814C60.0422 91.6002 59.4237 92.4903 57.3958 94.8901C55.7289 96.8628 55.61 96.9819 53.7713 98.5254C52.101 99.9275 50.9561 100.551 50.0536 100.551C49.4698 100.551 49.3975 100.447 49.3975 99.6097C49.3975 96.8651 55.6064 88.3599 58.7373 86.8157C59.647 86.3672 60.9087 86.2828 61.4626 86.6335ZM224.446 87.4928C224.403 88.9129 223.013 91.5114 220.932 94.0602C218.886 96.5679 218.301 97.1749 216.628 98.5297C215.056 99.803 213.66 100.551 212.857 100.551C212.22 100.551 212.194 100.498 212.314 99.4314C212.638 96.562 217.611 89.4657 220.824 87.2882C221.939 86.5327 222.352 86.3947 223.318 86.455L224.476 86.527L224.446 87.4928ZM281.077 90.1409C282.351 90.3586 283.624 90.5724 283.907 90.6167C286.025 90.9468 286.797 91.1658 288.14 91.8166C293.002 94.1719 288.99 97.6613 280.63 98.3496C276.279 98.7078 270.4 96.2743 270.4 94.115C270.4 93.2378 271.524 92.0222 272.76 91.5629C273.231 91.3879 273.996 91.0809 274.461 90.8802C274.926 90.6797 275.461 90.5156 275.651 90.5156C275.841 90.5156 276.141 90.3419 276.317 90.1296C276.729 89.6342 278.129 89.6376 281.077 90.1409ZM281.575 118.861C282.541 119.301 282.66 120.031 281.898 120.84C281.543 121.216 281.077 121.954 280.86 122.481C280.481 123.401 280.436 123.428 279.681 123.164C278.781 122.85 277.604 121.57 277.604 120.905C277.604 120.1 278.656 119.352 280.872 118.582C280.901 118.572 281.217 118.697 281.575 118.861ZM74.291 121.459C73.7237 121.895 71.2374 127.656 68.8208 134.132C68.5038 134.981 67.706 137.108 67.0474 138.858C62.8468 150.023 60.637 158.707 61.4791 160.74C61.8478 161.63 62.722 162.339 63.9739 162.763C64.6786 163.001 64.8541 162.964 65.3046 162.481C65.5899 162.174 66.2464 160.958 66.7633 159.779C69.3021 153.986 73.0332 149.504 74.8388 150.077C76.0547 150.463 76.0971 152.445 74.9633 155.876C72.7659 162.526 69.3243 166.427 65.6534 166.427C64.1262 166.427 63.9814 166.708 65.0272 167.643C66.0756 168.58 67.2267 169 68.7459 169C74.183 169 79.989 160.085 79.4232 152.605C79.2447 150.242 78.5186 148.99 76.862 148.188C74.4554 147.023 72.2948 147.816 69.1501 151.021C68.0569 152.134 67.1019 153.046 67.0275 153.046C66.258 153.046 68.5308 146.121 72.0535 137.735C72.1723 137.452 72.7463 136.062 73.3291 134.647C73.9116 133.232 74.562 131.668 74.7742 131.173C74.9865 130.678 75.2553 130.041 75.3714 129.758C75.4874 129.475 75.872 128.548 76.226 127.699C77.4003 124.882 77.5333 124.262 77.2003 123.151C76.9992 122.478 76.6243 121.975 76.0763 121.641C75.1115 121.052 74.8537 121.026 74.291 121.459ZM15.4622 123.208C12.7747 123.912 10.4432 125.228 10.3395 126.099C10.2338 126.989 10.6894 127.796 11.4646 128.091C11.8096 128.222 12.0921 128.538 12.0921 128.793C12.0921 129.047 11.3501 131.453 10.4432 134.138C9.53655 136.824 8.19922 140.99 7.47163 143.396C5.89451 148.613 5.55465 149.434 4.95673 149.473C4.70691 149.489 4.3866 149.529 4.2451 149.562C4.1036 149.595 3.84323 149.64 3.66622 149.661C3.16196 149.723 3.28931 150.848 3.88697 151.607C4.54663 152.446 4.6058 152.171 2.386 158.578C0.590969 163.759 0 165.763 0 166.668C0 167.326 1.21821 168.743 1.78397 168.743C2.75674 168.743 2.92063 168.384 5.6573 160.251C6.68127 157.208 7.70936 154.313 7.94168 153.818L8.36465 152.917L11.268 152.844L14.1717 152.771L14.7097 154.002C18.2892 162.193 20.8416 165.773 24.4878 167.717C26.4863 168.783 28.9971 169.056 30.3756 168.357C31.4518 167.812 32.9317 166.724 32.9317 166.478C32.9317 166.379 32.0924 166.294 31.0664 166.29C29.5598 166.283 28.95 166.151 27.8952 165.6C25.4022 164.3 22.1664 160.112 19.5892 154.849C18.1629 151.936 18.0198 151.317 18.717 151.067C22.6331 149.666 28.1731 146.201 31.3031 143.196C35.0205 139.626 36.0363 137.602 36.0638 133.71C36.0795 131.479 36.0015 131.014 35.4077 129.8C34.2976 127.53 31.6337 125.171 28.8577 124C25.5928 122.621 19.1549 122.241 15.4622 123.208ZM25.6949 126.807C29.2788 127.8 31.1204 129.242 31.6558 131.474C32.4179 134.652 31.2357 137.508 27.6853 141.068C23.3717 145.393 18.8737 147.765 12.9926 148.817C10.4144 149.278 10.0339 149.278 10.0339 148.812C10.0339 148.606 10.55 146.885 11.1806 144.987C12.7945 140.131 15.2981 131.671 15.8172 129.32C16.0578 128.23 16.3982 127.219 16.5734 127.073C17.6498 126.18 22.8816 126.027 25.6949 126.807ZM46.9037 134.638C45.65 135.184 44.9415 136.786 44.9541 139.047C44.9597 140.052 45.0968 141.122 45.2587 141.424C45.6268 142.112 46.6964 142.408 47.2258 141.968C47.8081 141.485 49.3265 138.803 49.6731 137.647C50.0639 136.342 49.6484 134.972 48.7348 134.556C47.9421 134.195 47.921 134.196 46.9037 134.638ZM125.206 135.033C124.241 135.88 123.751 137.299 123.751 139.247C123.751 140.79 124.065 141.529 124.912 141.982C125.587 142.344 125.644 142.324 126.328 141.505C126.72 141.035 127.416 139.912 127.874 139.008C128.575 137.627 128.686 137.172 128.571 136.15C128.343 134.127 126.815 133.619 125.206 135.033ZM174.525 146.162C172.752 148.046 171.553 149.84 169.934 153.031C168.402 156.052 167.857 157.705 167.624 160.04C167.368 162.593 167.644 163.899 168.699 165.132C169.963 166.609 170.902 167.035 172.909 167.041C175.127 167.049 176.861 166.209 179.312 163.939C184.355 159.27 186.365 154.52 184.392 151.934C183.647 150.956 181.36 149.284 179.902 148.651C179.211 148.351 179.066 148.147 179.066 147.472C179.066 147.022 178.994 146.467 178.906 146.237C178.719 145.749 176.993 144.811 176.284 144.811C176.015 144.811 175.224 145.419 174.525 146.162ZM143.619 145.905C143.17 146.455 141.128 153.381 139.806 158.836C139.6 159.685 139.33 160.727 139.206 161.152C138.336 164.118 137.857 166.471 138.004 167.056C138.2 167.837 139.534 168.74 140.494 168.742C141.503 168.743 142.058 167.927 143.944 163.667C146.163 158.653 147.993 155.772 150.813 152.853C152.349 151.263 152.925 151.151 153.326 152.365C153.955 154.271 155.963 155.869 157.739 155.875C158.215 155.877 159.513 154.75 159.513 154.334C159.513 154.18 159.041 153.619 158.464 153.086C157.591 152.279 157.332 151.799 156.913 150.202C156.323 147.956 155.595 147.127 154.212 147.127C153.717 147.127 152.99 147.294 152.595 147.498C151.697 147.963 149.303 150.534 147.507 152.964C145.366 155.859 145.021 155.838 145.871 152.863C147.062 148.699 147.163 148.284 147.163 147.604C147.163 147.221 146.972 146.715 146.738 146.481C145.879 145.622 144.116 145.296 143.619 145.905ZM99.7102 146.98C94.0516 149.366 90.0432 155.131 90.0501 160.872C90.055 165.073 92.2488 167.556 96.6151 168.304C99.7537 168.842 104.371 167.442 107.07 165.134C108.21 164.16 110.567 160.617 110.272 160.322C110.192 160.242 109.631 160.63 109.027 161.187C106.712 163.317 103.624 164.824 100.121 165.534C98.2391 165.915 97.9229 165.916 96.4844 165.547C94.0948 164.935 93.3786 164.256 93.0014 162.245C92.8223 161.291 93.2641 159.222 93.6469 159.222C93.776 159.222 94.5499 159.396 95.3668 159.608C98.1328 160.329 101.281 159.311 103.445 156.996C106.582 153.641 107.235 148.593 104.744 146.959C103.65 146.241 101.441 146.251 99.7102 146.98ZM120.876 148.036C119.406 148.835 116.048 158.123 116.037 161.426C116.024 164.821 118.116 167.497 121.312 168.174C123.957 168.735 126.485 167.666 129.76 164.601C130.983 163.457 131.984 162.415 131.984 162.286C131.984 161.855 131.14 162.046 130.336 162.66C129.277 163.467 126.777 164.705 125.087 165.259C121.762 166.348 119.861 164.417 120.408 160.508C120.758 158.015 120.846 157.722 123.217 151.187C123.903 149.293 123.895 148.544 123.179 148.043C122.475 147.549 121.776 147.548 120.876 148.036ZM41.7764 148.551C40.9583 149.369 39.8972 151.695 38.7192 155.255C36.6139 161.616 37.0008 165.13 40.0364 167.219C41.6622 168.338 43.7093 168.68 45.5607 168.141C47.3864 167.61 48.734 166.694 51.0966 164.376C53.7996 161.724 53.672 161.264 50.7727 163.209C47.5413 165.377 44.2396 166.203 42.9339 165.172C42.0707 164.491 41.4219 163.122 41.4219 161.984C41.4219 160.673 42.3224 157.28 43.6221 153.694C45.1092 149.591 45.2126 149.049 44.6314 148.407C43.963 147.668 42.5894 147.737 41.7764 148.551ZM103.516 149.49C103.96 150.198 102.779 152.329 100.996 154.042C98.9211 156.035 96.2552 157.403 95.435 156.896C94.6945 156.438 98.7842 151.21 101.064 149.7C102.339 148.855 103.078 148.792 103.516 149.49ZM180.272 151.746C181.975 152.785 181.998 154.07 180.358 156.608C179.159 158.464 175.78 162.067 174.254 163.117C173.66 163.527 172.831 163.93 172.413 164.014C171.783 164.14 171.575 164.046 171.197 163.47C170.788 162.845 170.774 162.61 171.065 161.19C171.456 159.282 172.918 156.077 174.547 153.559C175.591 151.944 175.821 151.728 176.35 151.861C176.683 151.945 177.344 151.845 177.818 151.639C178.965 151.141 179.303 151.155 180.272 151.746Z" fill="#395346"/>
</svg>
