<?xml version="1.0" standalone="no"?>
<!DOCTYPE svg PUBLIC "-//W3C//DTD SVG 20010904//EN"
 "http://www.w3.org/TR/2001/REC-SVG-20010904/DTD/svg10.dtd">
<svg version="1.0" xmlns="http://www.w3.org/2000/svg"
 width="512.000000pt" height="512.000000pt" viewBox="0 0 512.000000 512.000000"
 preserveAspectRatio="xMidYMid meet">

<g transform="translate(0.000000,512.000000) scale(0.100000,-0.100000)"
fill="#ffffff" stroke="none">
<path d="M525 4946 c-67 -21 -100 -43 -149 -97 -66 -73 -76 -116 -76 -321 l0
-168 -90 0 c-71 0 -99 -4 -130 -20 -45 -23 -80 -80 -80 -130 0 -50 35 -107 80
-130 39 -20 57 -20 1125 -20 1068 0 1086 0 1125 20 45 23 80 80 80 130 0 50
-35 107 -80 130 -31 16 -59 20 -129 20 l-89 0 -4 188 c-3 181 -4 189 -31 244
-32 64 -80 111 -146 142 -45 21 -58 21 -706 23 -513 2 -669 -1 -700 -11z"/>
<path d="M3780 4644 c-190 -40 -366 -196 -430 -378 -10 -28 -17 -52 -15 -54 2
-2 26 8 54 22 151 77 356 126 524 126 158 0 368 -50 507 -120 34 -17 63 -30
65 -28 6 6 -33 106 -61 154 -15 27 -60 81 -98 120 -143 143 -344 202 -546 158z"/>
<path d="M3747 4045 c-252 -48 -476 -206 -609 -428 -42 -70 -108 -244 -108
-284 l0 -23 418 0 c459 0 496 4 601 60 168 90 273 260 275 444 1 114 -8 143
-54 166 -130 67 -362 95 -523 65z"/>
<path d="M300 3601 c0 -286 47 -451 182 -648 91 -132 271 -280 394 -325 30
-11 32 -14 36 -77 9 -120 66 -209 166 -258 81 -40 183 -40 264 0 99 49 156
137 166 254 l5 64 72 33 c246 114 425 327 497 594 17 64 22 115 25 300 l5 222
-906 0 -906 0 0 -159z"/>
<path d="M4606 3659 c-4 -23 -18 -73 -31 -112 -70 -199 -229 -371 -429 -462
-149 -68 -152 -69 -668 -73 l-468 -3 0 -79 c0 -374 202 -718 511 -872 l86 -43
5 -67 c14 -171 131 -283 298 -283 166 0 284 112 298 280 l5 66 72 33 c251 116
432 337 502 613 27 103 26 607 -1 708 -29 110 -140 335 -166 335 -4 0 -10 -18
-14 -41z"/>
<path d="M610 2206 c-236 -83 -446 -278 -538 -499 -68 -167 -66 -140 -70 -814
-3 -602 -3 -613 18 -652 13 -27 34 -48 60 -61 39 -20 57 -20 1125 -20 1068 0
1086 0 1125 20 26 13 47 34 60 60 19 38 20 58 20 613 0 632 -3 679 -60 826
-95 245 -299 443 -543 526 l-84 29 -84 -85 c-96 -97 -167 -139 -285 -169 -98
-25 -190 -25 -288 0 -117 30 -189 72 -284 167 -46 46 -88 83 -95 82 -7 0 -41
-11 -77 -23z m670 -716 c45 -23 80 -80 80 -130 0 -76 -74 -150 -151 -150 -73
0 -149 76 -149 150 0 48 35 107 78 129 48 26 93 26 142 1z m0 -600 c45 -23 80
-80 80 -130 0 -76 -74 -150 -151 -150 -46 0 -108 39 -130 82 -37 72 -14 151
57 194 48 29 92 30 144 4z"/>
<path d="M3290 1597 c-267 -102 -477 -334 -552 -612 -19 -72 -22 -111 -26
-391 -4 -301 -3 -313 17 -353 14 -27 35 -48 61 -61 39 -20 57 -20 1125 -20
1068 0 1086 0 1125 20 26 13 47 34 61 61 20 40 21 52 17 353 -5 328 -8 352
-60 486 -85 220 -283 419 -506 510 -127 52 -120 53 -214 -42 -95 -96 -166
-138 -284 -168 -98 -25 -190 -25 -288 0 -117 30 -189 72 -284 167 -46 46 -88
83 -95 83 -7 -1 -50 -15 -97 -33z m690 -707 c45 -23 80 -80 80 -130 0 -76 -74
-150 -151 -150 -73 0 -149 76 -149 150 0 48 35 107 78 129 48 26 93 26 142 1z"/>
</g>
</svg>
