<?xml version="1.0" standalone="no"?>
<!DOCTYPE svg PUBLIC "-//W3C//DTD SVG 20010904//EN"
 "http://www.w3.org/TR/2001/REC-SVG-20010904/DTD/svg10.dtd">
<svg version="1.0" xmlns="http://www.w3.org/2000/svg"
 width="512.000000pt" height="512.000000pt" viewBox="0 0 512.000000 512.000000"
 preserveAspectRatio="xMidYMid meet">

<g transform="translate(0.000000,512.000000) scale(0.100000,-0.100000)"
fill="#ffffff" stroke="none">
<path d="M1081 4839 c-112 -22 -244 -81 -327 -147 -50 -39 -52 -40 -97 -29
-149 34 -297 -89 -297 -246 0 -57 -2 -60 -45 -103 -63 -61 -89 -121 -89 -210
0 -57 5 -81 27 -126 25 -52 70 -102 112 -125 14 -8 14 -13 0 -46 -8 -20 -15
-63 -15 -95 0 -101 53 -181 153 -228 32 -16 35 -20 41 -76 22 -190 160 -437
305 -543 46 -34 52 -55 18 -55 -29 0 -57 -30 -90 -96 l-26 -51 -243 -72 c-134
-41 -266 -82 -294 -92 -74 -28 -137 -88 -176 -167 l-33 -67 -3 -971 -2 -971
21 -26 c28 -37 80 -37 108 -1 21 27 21 31 21 968 l0 941 164 -165 c91 -92 174
-185 187 -210 l24 -45 5 -736 c5 -707 6 -738 24 -758 25 -27 79 -28 106 -1 20
20 20 33 20 748 0 795 1 779 -58 882 -14 25 -109 129 -210 232 l-184 186 29
15 c26 14 366 119 368 114 1 -1 18 -42 40 -90 95 -218 231 -413 420 -602 147
-147 276 -245 322 -245 49 0 230 142 369 290 163 175 279 346 370 546 29 65
49 98 58 96 8 -1 80 -23 161 -47 81 -25 157 -45 169 -45 58 0 88 91 43 127
-13 10 -135 52 -271 93 l-248 74 -33 67 c-33 66 -48 79 -86 79 -10 0 -19 3
-19 6 0 3 38 43 84 87 136 133 227 295 256 457 6 36 13 75 16 87 2 13 18 29
37 38 97 46 151 129 150 230 0 35 -7 74 -16 91 l-16 30 50 43 c27 23 62 66 77
94 22 44 27 65 27 132 0 70 -4 87 -29 133 -17 29 -46 68 -66 86 -34 31 -37 37
-37 92 0 115 -69 208 -180 240 -47 14 -68 15 -108 6 -40 -8 -54 -7 -70 4 -139
100 -230 145 -346 169 -79 17 -588 20 -668 4z m653 -155 c70 -18 188 -73 228
-106 l27 -23 -21 -60 c-18 -52 -19 -68 -10 -118 6 -32 23 -76 40 -100 28 -41
28 -45 15 -83 -22 -61 -12 -171 20 -227 39 -67 108 -122 182 -147 70 -23 82
-33 95 -80 19 -65 -36 -130 -110 -130 -38 0 -70 -44 -70 -95 0 -127 -64 -304
-153 -421 -205 -271 -594 -358 -896 -201 -228 118 -365 319 -393 577 -12 111
-27 135 -90 143 -56 8 -98 49 -98 98 0 51 30 84 101 110 89 33 142 78 179 152
34 70 42 151 20 224 -11 36 -10 42 14 77 49 73 58 175 21 248 -8 17 -14 32
-13 33 85 65 151 98 248 126 91 25 569 28 664 3z m-1054 -199 c19 -20 25 -36
25 -71 0 -42 -4 -49 -47 -86 -56 -47 -60 -70 -22 -135 48 -83 32 -157 -47
-211 -42 -29 -111 -26 -157 7 -43 30 -67 96 -53 147 15 56 34 79 86 103 59 28
73 57 57 117 -16 61 -15 95 6 121 38 48 108 52 152 8z m1566 20 c24 -10 39
-25 50 -51 14 -33 14 -41 -2 -84 -24 -67 -15 -93 48 -127 64 -35 89 -68 95
-124 8 -83 -48 -149 -134 -156 -119 -10 -193 117 -128 222 41 67 32 110 -31
152 -58 38 -48 139 18 168 42 18 42 18 84 0z m-490 -1772 c-2 -5 -81 -46 -175
-93 l-171 -85 -160 80 c-87 43 -158 80 -157 82 2 1 30 -6 63 -16 158 -50 362
-47 518 8 44 15 82 29 84 30 2 0 1 -2 -2 -6z m-653 -194 c100 -50 183 -93 185
-94 8 -7 -142 -195 -152 -192 -10 3 -207 242 -243 295 -13 18 -13 27 -3 52 7
17 16 30 21 30 5 0 91 -41 192 -91z m822 61 l15 -30 -126 -157 c-69 -87 -132
-158 -140 -158 -7 0 -45 43 -84 95 l-71 95 183 92 c101 50 189 92 195 92 7 1
19 -12 28 -29z m-981 -358 c94 -117 127 -142 193 -142 54 0 101 27 150 88 l43
53 0 -155 c0 -169 7 -200 50 -214 22 -8 82 5 92 20 1 2 4 81 7 175 l6 173 41
-53 c46 -59 93 -87 149 -87 66 0 102 27 202 152 52 65 97 118 99 118 9 0 -58
-120 -111 -199 -108 -161 -258 -324 -394 -429 l-65 -50 -59 46 c-190 149 -358
345 -471 551 -45 82 -57 111 -33 80 7 -8 52 -65 101 -127z"/>
<path d="M1006 3769 c-24 -19 -26 -26 -26 -99 0 -73 2 -80 26 -99 63 -50 124
-2 124 98 0 55 -17 97 -46 110 -35 16 -47 14 -78 -10z"/>
<path d="M1716 3769 c-24 -19 -26 -26 -26 -99 0 -73 2 -80 26 -99 63 -50 124
-2 124 98 0 55 -17 97 -46 110 -35 16 -47 14 -78 -10z"/>
<path d="M1175 3320 c-33 -37 -22 -80 34 -131 117 -109 282 -106 398 6 58 56
64 78 32 119 -31 39 -78 36 -129 -11 -69 -61 -156 -57 -219 11 -31 33 -89 36
-116 6z"/>
<path d="M3700 4493 c-455 -47 -828 -382 -926 -831 -23 -103 -23 -331 -1 -427
23 -104 73 -235 116 -307 31 -50 42 -83 55 -162 l16 -99 -39 -43 c-47 -50 -68
-95 -77 -165 -6 -41 -12 -52 -40 -70 -133 -82 -178 -279 -98 -434 l25 -49 -43
-36 c-93 -77 -146 -154 -184 -270 -16 -50 -18 -112 -22 -645 -4 -643 -2 -661
49 -679 35 -12 76 -1 91 27 10 17 14 164 18 642 l5 620 29 58 c33 64 102 134
163 165 l40 21 78 -86 c179 -195 398 -322 639 -370 117 -24 325 -21 442 5 242
54 466 188 622 372 62 74 67 77 91 67 95 -41 169 -123 201 -226 19 -60 20 -90
20 -656 0 -584 0 -593 21 -619 28 -36 80 -36 108 0 21 26 21 35 21 623 0 657
-1 669 -62 784 -37 69 -104 147 -153 177 l-33 21 31 61 c29 56 32 70 32 152 0
79 -4 98 -28 148 -18 36 -50 77 -86 110 -51 47 -59 58 -63 98 -7 59 -33 114
-78 161 l-37 39 13 62 c8 35 14 76 14 92 0 15 16 54 35 86 90 147 134 301 142
487 11 262 -54 475 -207 683 -213 286 -585 450 -940 413z m320 -173 c221 -54
429 -206 554 -407 42 -68 93 -202 111 -292 31 -150 12 -356 -45 -506 l-11 -30
-31 50 c-83 133 -218 214 -483 290 -345 99 -453 142 -584 231 -95 65 -108 62
-183 -47 -51 -72 -105 -125 -170 -165 -24 -14 -49 -33 -55 -42 -19 -24 -16
-76 6 -96 49 -44 133 -5 259 121 46 46 85 83 87 83 2 0 30 -16 62 -35 86 -51
237 -108 423 -161 181 -51 212 -63 165 -64 -44 -1 -107 -32 -149 -76 -36 -37
-37 -38 -73 -25 -47 17 -147 18 -196 2 -37 -13 -39 -12 -82 28 -56 51 -106 73
-175 73 -186 2 -306 -187 -226 -358 56 -121 212 -177 329 -118 64 33 137 122
137 169 0 27 45 62 88 70 54 9 132 -23 132 -55 0 -35 47 -116 87 -149 21 -18
62 -39 92 -47 223 -66 407 188 276 380 l-25 37 45 -31 c84 -58 138 -165 136
-272 -2 -197 -104 -395 -273 -530 -280 -226 -695 -203 -948 51 -123 123 -190
256 -214 424 -11 78 -20 104 -60 172 -52 89 -79 157 -103 254 -23 91 -22 303
0 395 91 368 382 637 752 696 86 13 246 4 345 -20z m-510 -1235 c5 -3 17 -20
26 -37 41 -79 -35 -166 -120 -138 -43 14 -66 48 -66 98 0 44 35 88 73 94 22 4
68 -5 87 -17z m710 0 c5 -3 17 -20 26 -37 41 -79 -35 -166 -120 -138 -43 14
-66 48 -66 98 0 44 35 88 73 94 22 4 68 -5 87 -17z m-1052 -766 c40 -42 95
-91 122 -109 28 -18 50 -36 50 -41 0 -13 -28 -26 -250 -115 l-205 -83 -27 29
c-82 89 -44 232 79 294 49 25 64 53 57 106 -4 32 -1 58 10 85 l17 39 37 -64
c20 -35 70 -98 110 -141z m1432 172 c5 -11 10 -47 10 -81 0 -77 9 -94 68 -124
56 -28 76 -49 97 -99 20 -48 19 -103 -4 -152 -33 -73 -24 -74 -271 25 -123 49
-228 94 -233 99 -5 5 15 26 50 52 80 59 170 155 218 233 22 36 43 65 47 66 4
0 12 -9 18 -19z m-1011 -422 c152 -39 315 -35 468 12 l63 20 26 -31 c15 -17
40 -38 57 -47 l31 -16 -37 -32 c-125 -108 -349 -161 -529 -124 -63 13 -221 88
-261 124 l-28 25 53 50 c32 30 59 47 68 44 8 -3 49 -14 89 -25z m-338 -155
c36 -38 137 -113 191 -140 152 -77 349 -103 519 -70 120 24 270 99 352 176 36
33 68 60 73 60 5 0 50 -16 101 -37 l92 -36 -40 -46 c-58 -66 -164 -154 -238
-198 -346 -203 -745 -184 -1075 52 -63 45 -202 182 -194 191 8 7 172 73 184
74 6 0 21 -12 35 -26z"/>
<path d="M3571 2694 c-12 -15 -21 -36 -21 -48 0 -35 56 -92 122 -125 110 -56
235 -38 328 46 44 39 50 50 50 83 0 71 -72 93 -132 41 -48 -41 -71 -51 -121
-51 -33 0 -54 7 -85 29 -22 16 -43 34 -47 40 -3 6 -21 11 -40 11 -24 0 -39 -7
-54 -26z"/>
<path d="M2322 2074 c-122 -124 -162 -188 -182 -293 -6 -33 -10 -320 -10 -756
0 -695 0 -703 21 -729 28 -36 80 -36 108 0 21 26 21 34 21 734 0 616 2 713 16
760 13 46 31 69 124 164 60 61 113 123 118 137 12 30 -7 83 -33 93 -49 19 -68
8 -183 -110z"/>
<path d="M2952 1367 l-22 -23 0 -515 0 -516 23 -21 c33 -31 80 -29 106 4 21
26 21 36 21 536 l0 509 -25 24 c-31 32 -74 33 -103 2z"/>
<path d="M4550 1370 c-19 -19 -20 -33 -20 -540 0 -507 1 -521 20 -540 25 -25
71 -26 101 -1 l24 19 3 489 c2 268 0 503 -3 521 -12 66 -82 95 -125 52z"/>
</g>
</svg>
