<?xml version="1.0" standalone="no"?>
<!DOCTYPE svg PUBLIC "-//W3C//DTD SVG 20010904//EN"
 "http://www.w3.org/TR/2001/REC-SVG-20010904/DTD/svg10.dtd">
<svg version="1.0" xmlns="http://www.w3.org/2000/svg"
 width="512.000000pt" height="512.000000pt" viewBox="0 0 512.000000 512.000000"
 preserveAspectRatio="xMidYMid meet">

<g transform="translate(0.000000,512.000000) scale(0.100000,-0.100000)"
fill="#ffffff" stroke="none">
<path d="M990 4210 c-146 -27 -278 -123 -346 -255 -16 -30 -34 -55 -40 -55
-32 0 -119 -35 -163 -65 -35 -25 -62 -35 -88 -35 -46 0 -110 -29 -139 -61 -39
-44 -177 -244 -191 -276 -27 -67 -8 -141 53 -204 l34 -35 -41 -60 c-51 -72
-69 -113 -69 -156 0 -41 30 -106 61 -135 13 -11 197 -143 408 -292 242 -171
393 -271 408 -271 31 0 73 42 73 73 0 14 -8 34 -17 46 -10 12 -189 142 -398
290 -209 147 -381 275 -383 284 -3 13 26 58 83 135 2 2 402 -278 889 -623 487
-344 898 -630 912 -635 16 -6 558 -10 1480 -10 l1454 0 0 -85 0 -85 -1496 0
-1495 0 -376 265 c-279 196 -384 265 -405 265 -60 0 -93 -75 -52 -121 8 -9
138 -103 290 -210 l275 -194 -768 -5 c-849 -6 -799 -1 -857 -70 -37 -44 -49
-95 -45 -192 4 -74 8 -90 33 -126 45 -66 91 -82 228 -82 l116 0 -6 -65 c-11
-147 89 -258 233 -258 73 0 126 24 178 82 44 49 61 107 53 184 l-6 57 1104 0
c1058 0 1105 1 1127 18 33 27 30 78 -5 109 l-27 23 -1428 0 c-1096 0 -1430 3
-1439 12 -16 16 -16 130 0 146 9 9 554 12 2390 12 l2378 0 0 -74 c0 -49 -4
-77 -13 -85 -10 -7 -238 -11 -774 -13 -732 -3 -762 -4 -782 -22 -27 -25 -28
-79 -1 -106 19 -19 33 -20 454 -20 l434 0 -6 -65 c-11 -147 89 -258 233 -258
73 0 126 24 178 82 44 49 61 107 53 184 l-6 57 115 0 c75 0 127 5 148 14 42
17 93 76 107 123 8 26 10 193 8 529 l-3 490 -27 41 c-16 24 -43 48 -67 59
l-40 19 -1 197 c0 108 -5 221 -11 250 -36 166 -173 311 -334 353 -49 12 -138
15 -531 15 -260 0 -480 -3 -489 -6 -8 -4 -22 -19 -30 -34 -17 -33 -5 -83 23
-97 9 -4 238 -10 507 -13 l490 -5 51 -27 c60 -32 118 -93 148 -157 19 -42 21
-67 24 -258 l3 -213 -809 0 -810 0 -7 33 c-11 51 -59 138 -103 187 -83 94
-200 140 -354 140 l-88 0 0 150 0 150 320 0 321 0 24 25 c14 13 25 36 25 50 0
14 -11 37 -25 50 l-24 25 -374 0 c-304 0 -383 3 -424 15 -33 10 -106 54 -210
127 -277 196 -338 235 -399 257 -81 31 -182 37 -267 17 -38 -9 -70 -16 -73
-16 -2 0 -4 17 -4 38 0 54 -26 147 -58 206 -34 64 -123 154 -184 188 -97 53
-221 76 -318 58z m215 -174 c72 -32 116 -75 156 -148 31 -58 34 -70 33 -148 0
-66 -5 -96 -23 -136 -24 -56 -100 -137 -108 -116 -3 7 -19 34 -36 60 -24 35
-78 80 -217 180 -102 72 -195 135 -207 138 -28 8 -29 18 -2 60 22 37 76 82
127 108 80 41 191 42 277 2z m-480 -300 c61 -26 359 -244 385 -282 18 -27 25
-54 28 -100 3 -35 2 -64 -2 -64 -12 0 -593 415 -594 425 -5 30 126 44 183 21z
m483 -684 c466 -329 878 -620 915 -645 l68 -47 1378 0 c1058 0 1380 -3 1389
-12 8 -8 12 -60 12 -170 l0 -158 -1443 0 -1442 0 -200 141 c-110 78 -535 378
-945 667 -410 289 -754 533 -765 544 -19 18 -19 20 -3 48 42 74 160 230 174
230 8 0 396 -269 862 -598z m628 530 c28 -10 126 -71 227 -142 290 -205 325
-227 387 -246 l60 -18 0 -154 0 -155 -72 6 c-40 3 -89 12 -108 20 -20 9 -144
92 -276 185 -132 93 -250 172 -261 176 -51 16 -108 -49 -85 -99 6 -13 60 -58
119 -100 59 -43 107 -82 105 -88 -5 -18 -105 -157 -114 -157 -15 0 -533 370
-535 383 -2 6 46 80 105 162 79 110 121 159 156 183 91 61 196 77 292 44z
m453 -834 c51 -20 79 -22 316 -28 278 -6 280 -6 357 -63 32 -23 72 -79 87
-119 l11 -28 -413 0 -412 0 -135 95 c-74 53 -139 100 -144 105 -6 6 12 40 49
94 l57 84 85 -59 c47 -32 111 -68 142 -81z m-1581 -1554 c29 -33 28 -76 -2
-110 -67 -79 -189 19 -130 104 33 48 92 50 132 6z m3870 0 c29 -33 28 -76 -2
-110 -67 -79 -189 19 -130 104 33 48 92 50 132 6z"/>
</g>
</svg>
