<?xml version="1.0" standalone="no"?>
<!DOCTYPE svg PUBLIC "-//W3C//DTD SVG 20010904//EN"
 "http://www.w3.org/TR/2001/REC-SVG-20010904/DTD/svg10.dtd">
<svg version="1.0" xmlns="http://www.w3.org/2000/svg"
 width="512.000000pt" height="512.000000pt" viewBox="0 0 512.000000 512.000000"
 preserveAspectRatio="xMidYMid meet">

<g transform="translate(0.000000,512.000000) scale(0.100000,-0.100000)"
fill="#ffffff" stroke="none">
<path d="M220 4048 c-24 -13 -58 -40 -74 -61 l-31 -39 0 -1388 0 -1388 31 -39
c78 -98 209 -109 297 -25 59 56 62 68 65 305 l4 217 1897 0 c1044 0 1966 3
2049 7 l150 6 4 -219 c3 -238 6 -250 65 -306 88 -84 219 -73 297 25 l31 39 3
550 2 550 -2249 -7 -2250 -8 -3 829 c-3 913 1 854 -65 916 -63 60 -149 73
-223 36z"/>
<path d="M2233 3571 c-104 -38 -179 -107 -231 -211 l-27 -55 -3 -432 -3 -433
1521 0 1520 0 0 233 c0 202 -3 245 -20 313 -65 252 -248 460 -489 553 -42 16
-103 34 -135 40 -41 8 -382 11 -1070 11 -960 -1 -1014 -2 -1063 -19z"/>
<path d="M1151 3494 c-253 -54 -420 -295 -381 -548 15 -100 67 -201 138 -273
267 -267 722 -142 817 224 69 266 -102 541 -372 598 -83 18 -119 18 -202 -1z"/>
</g>
</svg>
