<svg width="314" height="159" viewBox="0 0 314 159" fill="none" xmlns="http://www.w3.org/2000/svg">
<path fill-rule="evenodd" clip-rule="evenodd" d="M238.783 0.379347C235.73 1.20047 235.828 1.13717 219.33 12.9724C214.378 16.5253 204.489 23.5938 197.356 28.6801C190.223 33.7666 184 38.2891 183.527 38.7304C181.275 40.8333 183.637 44.1863 186.431 42.8533C186.913 42.6235 189.681 40.7265 192.581 38.6378C195.482 36.5491 198.551 34.3451 199.401 33.7401C200.252 33.1354 203.058 31.1169 205.636 29.2549C208.215 27.3929 211.061 25.3616 211.961 24.7407C212.86 24.12 215.813 22.0019 218.521 20.0339C226.657 14.1234 227.881 13.2423 232.781 9.76969C238.367 5.81124 239.554 5.26828 242.614 5.27009C245.252 5.27163 245.597 5.42937 249.977 8.62999C251.692 9.88343 254.619 12.0089 256.481 13.3535C258.343 14.698 260.818 16.5019 261.982 17.3618C263.145 18.2218 265.602 20.0095 267.441 21.3347C269.281 22.6597 271.828 24.5124 273.101 25.4522C274.375 26.3917 277.42 28.599 279.869 30.3571C282.318 32.1151 284.923 33.9892 285.658 34.5216C286.393 35.054 287.284 35.6894 287.638 35.9333C287.991 36.1775 290.133 37.7004 292.396 39.3177C294.66 40.935 296.859 42.4704 297.284 42.7298C299.91 44.3314 302.809 41.4167 300.875 39.1185C300.515 38.69 298.367 37.0311 296.103 35.4318C293.839 33.8328 290.168 31.2024 287.946 29.5869C285.725 27.9711 281.649 25.0286 278.89 23.0475C272.6 18.5319 265.065 13.0475 262.038 10.783C255.306 5.74588 249.775 1.88007 248.403 1.254C247.554 0.866465 246.245 0.419747 245.496 0.260976C243.647 -0.130159 240.469 -0.0743187 238.783 0.379347ZM197.413 47.8395C195.278 49.6938 195.034 49.999 194.89 50.9869C194.803 51.5888 194.77 64.3555 194.817 79.3576L194.902 106.634L195.49 108.564C197.141 113.985 200.812 117.708 205.895 119.117C207.687 119.614 208.578 119.629 235.727 119.629C251.118 119.629 263.708 119.542 263.704 119.436C263.701 119.33 262.673 118.143 261.421 116.799L259.144 114.354L233.319 114.225L207.495 114.097L206.011 113.401C204.428 112.659 202.044 110.478 201.351 109.137C200.179 106.871 200.163 106.413 200.163 75.2237C200.163 59.0278 200.076 45.7789 199.97 45.7814C199.864 45.784 198.713 46.7104 197.413 47.8395ZM95.2878 47.9795C93.8185 50.2224 87.2224 67.7375 85.0214 75.2404C83.9861 78.7696 83.9091 79.1147 83.3681 82.6573C82.7226 86.8836 82.8191 87.4047 84.4865 88.6916C85.5393 89.5045 86.5432 89.4399 87.2 88.5174C87.4925 88.1062 87.7321 87.6955 87.7321 87.6046C87.7321 87.3146 89.9071 83.0253 91.0085 81.1429C92.1583 79.1782 93.8772 77.4215 95.3256 76.7306C96.2096 76.3091 96.2513 76.3129 96.8076 76.8698C97.5943 77.6572 97.538 79.2969 96.629 82.066C95.0614 86.8414 93.0786 90.1141 90.7327 91.7973C89.6472 92.5762 89.2449 92.7056 87.581 92.8124C86.5321 92.8798 85.6738 93.0139 85.6738 93.1101C85.6738 93.4212 87.0624 94.5962 87.9893 95.0697C89.3413 95.7601 91.679 95.6898 93.2368 94.9117C96.8325 93.1155 100.715 86.4608 101.214 81.2389C101.44 78.8777 101.178 77.5579 100.233 76.3047C99.1112 74.8163 97.4703 74.0088 95.9145 74.1797C94.1802 74.3698 93.2772 74.9216 90.885 77.2514C89.7185 78.3877 88.6917 79.2451 88.6032 79.1566C88.1023 78.6556 91.8822 67.1814 94.5561 61.0874C97.0069 55.5017 98.795 50.7695 98.795 49.8696C98.795 47.7806 96.2994 46.4356 95.2878 47.9795ZM26.3711 48.8809C23.7687 49.7983 20.9463 51.6691 18.1073 54.3586C10.7211 61.3558 4.74422 71.5761 2.43489 81.1589C2.12847 82.4298 1.99931 84.0968 1.99571 86.8201C1.99134 90.2054 2.06209 90.8696 2.57124 92.2239C3.71176 95.2583 6.03164 97.6458 8.57356 98.4005C12.3514 99.5227 18.345 96.5079 26.8702 89.1965C28.6709 87.6522 29.8078 87.1142 29.6707 87.8712C29.0318 91.3953 28.4061 100.213 28.6796 101.833C28.9796 103.608 31.0458 105.1 31.7914 104.081C31.9692 103.838 32.184 102.518 32.2687 101.148C32.5779 96.1481 33.0976 91.8904 34.1118 86.0481C35.1227 80.224 35.3285 79.627 36.5189 79.0681C37.6368 78.5429 37.811 78.2995 37.8161 77.2529C37.8238 75.6377 36.6115 75.1915 33.3176 75.5975C31.0132 75.8814 26.4632 76.7043 23.9269 77.2956C23.0072 77.51 21.6757 77.8026 20.9682 77.9457C18.0756 78.5306 16.9804 78.9603 16.9804 79.5104C16.9804 80.3298 17.4378 80.9875 18.3275 81.4476C19.3857 81.9949 22.1028 81.8081 25.6329 80.945C29.4697 80.0073 30.1016 79.9191 30.1016 80.3208C30.1016 80.5094 28.6835 82.0757 26.9499 83.8014C22.2551 88.4754 17.7257 91.9861 13.9214 93.9004C12.1207 94.8064 11.4947 94.992 10.1455 95.0205C8.22237 95.0609 7.42223 94.5921 6.43197 92.8443C5.8199 91.7643 5.78877 91.5096 5.78877 87.592C5.78877 82.6272 6.29484 79.9767 8.14673 75.2404C11.4767 66.7242 17.9629 58.2584 24.4664 53.9405C27.9487 51.6284 29.7399 51.1868 31.052 52.3167C31.7292 52.8996 31.7739 53.0633 31.7719 54.9543C31.7701 56.6149 31.5905 57.5065 30.752 60.0126C29.8039 62.846 29.7605 63.1018 30.1171 63.7374C30.6555 64.6972 31.7662 65.2868 32.3505 64.9232C33.9024 63.9577 35.7617 58.6933 35.7617 55.2644C35.7617 51.4668 33.3372 48.8181 29.5531 48.4823C28.2703 48.3683 27.5798 48.4548 26.3711 48.8809ZM262.038 57.6442C248.608 58.684 240.917 73.2989 247.429 85.4048C248.523 87.4374 250.605 89.9461 256.401 96.2122C257.121 96.9909 258.221 98.2067 258.844 98.9144C259.468 99.622 260.738 101.012 261.668 102.002C262.597 102.993 264.045 104.555 264.885 105.473C267.053 107.843 270.267 111.302 274.572 115.898C275.367 116.747 276.335 117.789 276.722 118.214C278.227 119.862 279.701 120.32 280.869 119.502C281.489 119.067 283.414 117.046 291.883 107.939C293.581 106.113 295.089 104.494 295.236 104.34C295.94 103.6 307.949 90.3292 308.744 89.4129C311.998 85.6639 313.127 83.3101 313.768 78.9361C314.699 72.5845 312.827 67.0867 308.17 62.5022C302.76 57.1763 293.097 55.9749 286 59.7458C283.435 61.1086 281.101 63.532 282.354 63.532C282.864 63.532 283.264 64.3447 283.264 65.3807C283.263 66.3827 282.091 68.9766 281.117 70.1309C280.741 70.5761 280.434 71.0102 280.434 71.0959C280.434 71.6772 281.45 70.8615 284.032 68.2071C287.182 64.9692 288.749 63.9427 291.766 63.1396C296.291 61.9353 301.84 63.5266 305.038 66.9457C307.742 69.8376 308.931 73.2096 308.668 77.2455C308.376 81.7399 307.452 83.1864 299.103 92.2239C297.665 93.7807 295.32 96.3282 293.893 97.8851C289.534 102.641 284.265 108.167 283.881 108.385C283.456 108.627 283.007 108.411 283.007 107.966C283.007 107.795 283.529 107.149 284.169 106.529C285.452 105.285 285.715 104.628 285.494 103.211C285.386 102.52 285.037 101.978 284.219 101.23C282.981 100.1 281.198 99.4221 277.167 98.5485C273.891 97.8388 272.201 96.6008 272.201 94.9106C272.201 93.8888 273.928 92.5469 276.068 91.9048C278.825 91.0778 281.529 90.5757 281.978 90.8073C282.19 90.9172 283.058 91.1573 283.907 91.341C285.627 91.7131 286.346 92.0816 287.573 93.2213C288.514 94.0941 288.706 95.4178 288.031 96.3807C287.552 97.0645 285.42 98.436 284.472 98.6702C283.925 98.8055 283.77 98.9803 283.829 99.3961C283.945 100.213 284.8 100.199 286.647 99.3498C288.604 98.4496 289.551 97.4924 289.941 96.0195C290.546 93.7313 289.254 91.8443 286.021 90.294C285.283 89.9401 284.679 89.5348 284.679 89.3933C284.679 89.2518 285.895 88.7248 287.38 88.2222C290.488 87.1713 291.285 86.7094 292.007 85.5406C293.411 83.269 291.98 80.9911 288.224 79.5151C287.56 79.2544 286.976 78.9165 286.925 78.7639C286.834 78.4889 289.114 77.685 289.987 77.685C290.9 77.685 294.53 76.3827 295.578 75.6789C299.385 73.1213 298.583 68.7516 294.162 67.965C292.478 67.6655 289.736 68.0216 288.212 68.738C287.152 69.2362 287.096 69.3088 287.525 69.623C287.847 69.8579 288.868 69.9652 290.787 69.9652C293.849 69.9652 294.922 70.2905 295.185 71.2981C295.607 72.9095 292.896 74.7607 288.909 75.5839C287.714 75.8307 286.484 76.1727 286.175 76.3441C285.866 76.5154 285.229 76.6608 284.76 76.667C284.291 76.6732 283.444 76.8451 282.878 77.0491C281.559 77.5241 280.723 77.5224 279.573 77.0417C279.065 76.8294 278.211 76.6557 277.676 76.6554C275.578 76.6549 268.469 74.8711 266.899 73.9512C265.664 73.2271 264.881 72.0246 265.131 71.2361C265.431 70.2912 266.573 69.9652 269.584 69.9652C271.654 69.9652 272.473 69.872 272.688 69.6116C273.357 68.8059 270.654 67.8724 267.555 67.8389C265.862 67.8206 265.414 67.9146 264.422 68.4966C262.263 69.7619 261.803 72.3257 263.38 74.2947C264.524 75.7218 267.412 77.0805 270.722 77.7478C272.298 78.0656 273.487 78.4317 273.487 78.5993C273.487 78.7611 272.628 79.3185 271.577 79.8378C269.446 80.891 268.444 81.8938 268.195 83.2234C267.949 84.5335 268.262 85.4091 269.346 86.44C270.297 87.345 270.484 87.4173 275.481 88.8141C276.083 88.9821 276.575 89.1913 276.575 89.2788C276.575 89.3663 275.606 89.918 274.421 90.505C270.509 92.4442 269.361 95.2328 271.482 97.6483C272.55 98.8657 275.598 100.336 278.633 101.099C280.416 101.548 282.036 102.183 282.794 102.731C285.064 104.372 282.377 107.587 279.614 106.536C279.287 106.412 278.903 106.283 278.762 106.251C278.365 106.16 277.221 105.301 276.543 104.585C275.846 103.851 275.546 103.767 275.546 104.306C275.546 105.148 276.217 106.043 277.39 106.765C278.074 107.186 278.633 107.644 278.633 107.784C278.633 107.923 278.315 108.24 277.925 108.488C277.536 108.735 277.125 109.085 277.012 109.266C276.445 110.17 275.625 109.439 268.728 101.883C268.02 101.108 267.325 100.342 267.184 100.18C266.762 99.6964 260.475 92.7694 257.056 89.0212C252.165 83.6588 251.112 81.8115 250.578 77.6603C249.93 72.6087 252.169 67.7934 256.529 64.8653C257.41 64.2734 258.321 63.7894 258.554 63.7894C258.786 63.7894 259.087 63.6893 259.221 63.567C259.683 63.1468 261.883 62.7601 263.812 62.7601C266.314 62.7601 268.04 63.1355 270.3 64.1712C271.852 64.8825 272.597 65.4836 275.204 68.1307C277.057 70.0128 278.475 71.2503 278.777 71.2477C279.119 71.2451 279.742 70.5323 280.755 68.9822C281.939 67.1724 282.235 66.5129 282.235 65.681C282.235 64.1381 281.696 63.7672 279.977 64.1254L278.62 64.4085L277.411 63.0272C274.021 59.1508 268.328 57.1573 262.038 57.6442ZM150.046 61.0476C148.962 61.6494 148.396 62.9657 148.26 65.1995C148.148 67.0417 148.195 67.3392 148.697 67.9709C149.742 69.2871 150.268 68.9114 152.183 65.4813C153.118 63.8066 153.15 62.0547 152.26 61.2261C151.62 60.6294 150.904 60.5715 150.046 61.0476ZM117.386 72.1934C117.027 72.3385 116.509 73.3892 115.947 75.1117C115.445 76.6508 113.773 82.9542 113.183 85.5334C112.924 86.6657 112.466 88.3447 112.165 89.2646C111.864 90.1846 111.555 91.585 111.478 92.3767C111.348 93.7084 111.391 93.8662 112.056 94.4827C113.642 95.9531 114.909 95.5257 115.957 93.167C117.535 89.6151 119.93 84.8842 120.916 83.3721C122.357 81.1599 125.588 77.8736 126.12 78.0779C126.342 78.1631 126.712 78.7266 126.943 79.3303C127.713 81.3462 129.957 82.8428 131.392 82.2973C131.788 82.1468 132.315 81.84 132.562 81.6156C133.032 81.1905 133.189 80.0009 132.776 80.0009C132.645 80.0009 132.193 79.7104 131.771 79.3553C131.232 78.9021 130.843 78.1824 130.467 76.9416C129.841 74.8801 129.32 74.156 128.253 73.8637C126.411 73.3588 124.359 74.8889 121.23 79.1003C120.179 80.5156 119.226 81.7085 119.114 81.7515C118.593 81.9502 118.688 81.162 119.482 78.6885C120.67 74.9869 120.79 74.1848 120.273 73.3964C120.042 73.0423 119.459 72.5889 118.98 72.3882C118.062 72.0048 117.901 71.9852 117.386 72.1934ZM172.839 73.0271C170.798 73.6913 169.295 74.6262 167.365 76.4321C163.276 80.258 161.222 86.0195 162.464 90.1828C163.212 92.6899 165.206 94.2066 168.696 94.9209C172.266 95.652 177.692 93.6966 180.189 90.7798C181.187 89.6141 182.752 86.9467 182.554 86.749C182.493 86.6875 181.783 87.1747 180.976 87.8316C177.517 90.6501 174.131 92.0999 170.559 92.2924C168.67 92.394 168.201 92.3325 167.282 91.8639C165.734 91.0737 165.303 90.2759 165.302 88.1967C165.301 86.001 165.543 85.7169 167.03 86.1652C169.892 87.0277 172.966 86.1649 175.219 83.8667C178.096 80.9309 179.234 76.9027 177.908 74.3397C177.127 72.8277 175.08 72.2979 172.839 73.0271ZM221.757 72.821C219.713 73.1272 218.002 74.2185 215.365 76.897C212.614 79.6929 210.597 82.6997 209.257 86.0048C208.201 88.608 208.118 90.4273 208.983 91.9666C209.815 93.4472 210.94 93.9552 213.086 93.8188C215.297 93.6783 216.852 92.7738 219.917 89.8449C221.138 88.6779 222.212 87.8095 222.303 87.915C222.394 88.0205 222.658 88.9013 222.89 89.8727C223.403 92.0193 224.099 93.1992 225.417 94.1538C228.252 96.2081 232.075 95.5398 235.018 92.4756C236.28 91.1624 237.669 88.8653 237.378 88.574C237.299 88.4952 236.506 88.9831 235.615 89.6581C233.775 91.0518 231.299 92.2633 229.802 92.5028C228.546 92.7036 227.117 92.0901 226.698 91.1702C226.025 89.6928 226.766 85.4655 228.476 81.0282C230.871 74.8104 230.911 74.5389 229.554 73.7481C228.598 73.1913 226.878 73.05 226.723 73.5155C226.579 73.9465 225.876 73.9025 225.533 73.4409C225.149 72.9242 223.202 72.6046 221.757 72.821ZM56.6013 73.4455C53.8634 74.7448 48.831 80.6224 47.0228 84.6328C46.0153 86.8674 45.7591 87.8563 45.7323 89.6136C45.7025 91.5891 46.2839 92.7792 47.6053 93.4457C48.628 93.9619 50.7076 94.036 51.9963 93.6021C53.169 93.2077 56.3528 90.7667 57.8913 89.083C58.5759 88.3336 59.2528 87.7207 59.3951 87.7207C59.6838 87.7207 59.8351 88.1368 60.0959 89.6506C60.8927 94.2735 65.1574 96.4487 69.5219 94.4585C71.1991 93.6937 72.715 92.2787 73.9458 90.3284C74.5568 89.3604 74.8069 88.4927 74.4747 88.4927C74.3996 88.4927 73.734 88.9741 72.9954 89.5626C69.8903 92.0358 65.807 93.1824 64.5572 91.9324C63.7655 91.1406 63.4949 89.5423 63.8098 87.5182C64.0848 85.7504 64.6801 83.3647 65.0756 82.4455C65.1973 82.1625 65.436 81.5256 65.6061 81.0302C65.7761 80.5349 66.0182 79.898 66.1441 79.6149C66.8168 78.1021 67.6643 75.5389 67.6643 75.017C67.6643 73.6645 65.444 72.7397 63.9261 73.4599C63.0634 73.8693 62.9914 73.8668 62.4848 73.4085C62.0819 73.0436 61.4716 72.9075 59.984 72.8501C58.3004 72.7852 57.8121 72.8712 56.6013 73.4455ZM145.022 74.6406C144.349 75.1421 142.79 78.0468 142.79 78.7979C142.79 78.9783 142.692 79.2359 142.573 79.3705C142.454 79.5048 142.105 80.4834 141.798 81.5449C141.49 82.6063 141.117 83.8222 140.969 84.2468C140.821 84.6714 140.633 86.1417 140.55 87.5143C140.409 89.8704 140.44 90.0912 141.109 91.4573C141.946 93.1698 143.284 94.2413 145.325 94.8347C146.529 95.1849 146.934 95.1968 148.103 94.9163C149.901 94.485 151.561 93.5064 153.525 91.7193C156.394 89.1095 156.945 87.6437 154.4 89.3951C152.766 90.5189 150.043 91.7777 148.481 92.1313C146.974 92.4725 146.162 92.1768 145.222 90.9442C144.539 90.049 144.521 89.9443 144.681 87.776C144.886 85.0072 145.835 81.5088 147.191 78.5259C147.958 76.8394 148.105 75.211 147.545 74.5924C146.951 73.9357 145.941 73.955 145.022 74.6406ZM175.614 76.0057C176.014 77.6016 173.138 81.2798 170.491 82.5549C168.744 83.3966 167.716 83.623 167.57 83.1984C167.297 82.3997 171.606 77.1562 173.656 75.7923C174.611 75.157 175.423 75.2455 175.614 76.0057ZM61.4626 76.6335C61.9296 76.9292 61.7034 78.0833 60.8068 79.9814C60.0422 81.6002 59.4237 82.4903 57.3958 84.8901C55.7289 86.8628 55.61 86.9819 53.7713 88.5254C52.101 89.9275 50.9561 90.5513 50.0536 90.5513C49.4698 90.5513 49.3975 90.4473 49.3975 89.6097C49.3975 86.8651 55.6064 78.3599 58.7373 76.8157C59.647 76.3672 60.9087 76.2828 61.4626 76.6335ZM224.446 77.4928C224.403 78.9129 223.013 81.5114 220.932 84.0602C218.886 86.5679 218.301 87.1749 216.628 88.5297C215.056 89.803 213.66 90.5513 212.857 90.5513C212.22 90.5513 212.194 90.4983 212.314 89.4314C212.638 86.562 217.611 79.4657 220.824 77.2882C221.939 76.5327 222.352 76.3947 223.318 76.455L224.476 76.527L224.446 77.4928ZM281.077 80.1409C282.351 80.3586 283.624 80.5724 283.907 80.6167C286.025 80.9468 286.797 81.1658 288.14 81.8166C293.002 84.1719 288.99 87.6613 280.63 88.3496C276.279 88.7078 270.4 86.2743 270.4 84.115C270.4 83.2378 271.524 82.0222 272.76 81.5629C273.231 81.3879 273.996 81.0809 274.461 80.8802C274.926 80.6797 275.461 80.5156 275.651 80.5156C275.841 80.5156 276.141 80.3419 276.317 80.1296C276.729 79.6342 278.129 79.6376 281.077 80.1409ZM281.575 108.861C282.541 109.301 282.66 110.031 281.898 110.84C281.543 111.216 281.077 111.954 280.86 112.481C280.481 113.401 280.436 113.428 279.681 113.164C278.781 112.85 277.604 111.57 277.604 110.905C277.604 110.1 278.656 109.352 280.872 108.582C280.901 108.572 281.217 108.697 281.575 108.861ZM74.291 111.459C73.7237 111.895 71.2374 117.656 68.8208 124.132C68.5038 124.981 67.706 127.108 67.0474 128.858C62.8468 140.023 60.637 148.707 61.4791 150.74C61.8478 151.63 62.722 152.339 63.9739 152.763C64.6786 153.001 64.8541 152.964 65.3046 152.481C65.5899 152.174 66.2464 150.958 66.7633 149.779C69.3021 143.986 73.0332 139.504 74.8388 140.077C76.0547 140.463 76.0971 142.445 74.9633 145.876C72.7659 152.526 69.3243 156.427 65.6534 156.427C64.1262 156.427 63.9814 156.708 65.0272 157.643C66.0756 158.58 67.2267 159 68.7459 159C74.183 159 79.989 150.085 79.4232 142.605C79.2447 140.242 78.5186 138.99 76.862 138.188C74.4554 137.023 72.2948 137.816 69.1501 141.021C68.0569 142.134 67.1019 143.046 67.0275 143.046C66.258 143.046 68.5308 136.121 72.0535 127.735C72.1723 127.452 72.7463 126.062 73.3291 124.647C73.9116 123.232 74.562 121.668 74.7742 121.173C74.9865 120.678 75.2553 120.041 75.3714 119.758C75.4874 119.475 75.872 118.548 76.226 117.699C77.4003 114.882 77.5333 114.262 77.2003 113.151C76.9992 112.478 76.6243 111.975 76.0763 111.641C75.1115 111.052 74.8537 111.026 74.291 111.459ZM15.4622 113.208C12.7747 113.912 10.4432 115.228 10.3395 116.099C10.2338 116.989 10.6894 117.796 11.4646 118.091C11.8096 118.222 12.0921 118.538 12.0921 118.793C12.0921 119.047 11.3501 121.453 10.4432 124.138C9.53655 126.824 8.19922 130.99 7.47163 133.396C5.89451 138.613 5.55465 139.434 4.95673 139.473C4.70691 139.489 4.3866 139.529 4.2451 139.562C4.1036 139.595 3.84323 139.64 3.66622 139.661C3.16196 139.723 3.28931 140.848 3.88697 141.607C4.54663 142.446 4.6058 142.171 2.386 148.578C0.590969 153.759 0 155.763 0 156.668C0 157.326 1.21821 158.743 1.78397 158.743C2.75674 158.743 2.92063 158.384 5.6573 150.251C6.68127 147.208 7.70936 144.313 7.94168 143.818L8.36465 142.917L11.268 142.844L14.1717 142.771L14.7097 144.002C18.2892 152.193 20.8416 155.773 24.4878 157.717C26.4863 158.783 28.9971 159.056 30.3756 158.357C31.4518 157.812 32.9317 156.724 32.9317 156.478C32.9317 156.379 32.0924 156.294 31.0664 156.29C29.5598 156.283 28.95 156.151 27.8952 155.6C25.4022 154.3 22.1664 150.112 19.5892 144.849C18.1629 141.936 18.0198 141.317 18.717 141.067C22.6331 139.666 28.1731 136.201 31.3031 133.196C35.0205 129.626 36.0363 127.602 36.0638 123.71C36.0795 121.479 36.0015 121.014 35.4077 119.8C34.2976 117.53 31.6337 115.171 28.8577 114C25.5928 112.621 19.1549 112.241 15.4622 113.208ZM25.6949 116.807C29.2788 117.8 31.1204 119.242 31.6558 121.474C32.4179 124.652 31.2357 127.508 27.6853 131.068C23.3717 135.393 18.8737 137.765 12.9926 138.817C10.4144 139.278 10.0339 139.278 10.0339 138.812C10.0339 138.606 10.55 136.885 11.1806 134.987C12.7945 130.131 15.2981 121.671 15.8172 119.32C16.0578 118.23 16.3982 117.219 16.5734 117.073C17.6498 116.18 22.8816 116.027 25.6949 116.807ZM46.9037 124.638C45.65 125.184 44.9415 126.786 44.9541 129.047C44.9597 130.052 45.0968 131.122 45.2587 131.424C45.6268 132.112 46.6964 132.408 47.2258 131.968C47.8081 131.485 49.3265 128.803 49.6731 127.647C50.0639 126.342 49.6484 124.972 48.7348 124.556C47.9421 124.195 47.921 124.196 46.9037 124.638ZM125.206 125.033C124.241 125.88 123.751 127.299 123.751 129.247C123.751 130.79 124.065 131.529 124.912 131.982C125.587 132.344 125.644 132.324 126.328 131.505C126.72 131.035 127.416 129.912 127.874 129.008C128.575 127.627 128.686 127.172 128.571 126.15C128.343 124.127 126.815 123.619 125.206 125.033ZM174.525 136.162C172.752 138.046 171.553 139.84 169.934 143.031C168.402 146.052 167.857 147.705 167.624 150.04C167.368 152.593 167.644 153.899 168.699 155.132C169.963 156.609 170.902 157.035 172.909 157.041C175.127 157.049 176.861 156.209 179.312 153.939C184.355 149.27 186.365 144.52 184.392 141.934C183.647 140.956 181.36 139.284 179.902 138.651C179.211 138.351 179.066 138.147 179.066 137.472C179.066 137.022 178.994 136.467 178.906 136.237C178.719 135.749 176.993 134.811 176.284 134.811C176.015 134.811 175.224 135.419 174.525 136.162ZM143.619 135.905C143.17 136.455 141.128 143.381 139.806 148.836C139.6 149.685 139.33 150.727 139.206 151.152C138.336 154.118 137.857 156.471 138.004 157.056C138.2 157.837 139.534 158.74 140.494 158.742C141.503 158.743 142.058 157.927 143.944 153.667C146.163 148.653 147.993 145.772 150.813 142.853C152.349 141.263 152.925 141.151 153.326 142.365C153.955 144.271 155.963 145.869 157.739 145.875C158.215 145.877 159.513 144.75 159.513 144.334C159.513 144.18 159.041 143.619 158.464 143.086C157.591 142.279 157.332 141.799 156.913 140.202C156.323 137.956 155.595 137.127 154.212 137.127C153.717 137.127 152.99 137.294 152.595 137.498C151.697 137.963 149.303 140.534 147.507 142.964C145.366 145.859 145.021 145.838 145.871 142.863C147.062 138.699 147.163 138.284 147.163 137.604C147.163 137.221 146.972 136.715 146.738 136.481C145.879 135.622 144.116 135.296 143.619 135.905ZM99.7102 136.98C94.0516 139.366 90.0432 145.131 90.0501 150.872C90.055 155.073 92.2488 157.556 96.6151 158.304C99.7537 158.842 104.371 157.442 107.07 155.134C108.21 154.16 110.567 150.617 110.272 150.322C110.192 150.242 109.631 150.63 109.027 151.187C106.712 153.317 103.624 154.824 100.121 155.534C98.2391 155.915 97.9229 155.916 96.4844 155.547C94.0948 154.935 93.3786 154.256 93.0014 152.245C92.8223 151.291 93.2641 149.222 93.6469 149.222C93.776 149.222 94.5499 149.396 95.3668 149.608C98.1328 150.329 101.281 149.311 103.445 146.996C106.582 143.641 107.235 138.593 104.744 136.959C103.65 136.241 101.441 136.251 99.7102 136.98ZM120.876 138.036C119.406 138.835 116.048 148.123 116.037 151.426C116.024 154.821 118.116 157.497 121.312 158.174C123.957 158.735 126.485 157.666 129.76 154.601C130.983 153.457 131.984 152.415 131.984 152.286C131.984 151.855 131.14 152.046 130.336 152.66C129.277 153.467 126.777 154.705 125.087 155.259C121.762 156.348 119.861 154.417 120.408 150.508C120.758 148.015 120.846 147.722 123.217 141.187C123.903 139.293 123.895 138.544 123.179 138.043C122.475 137.549 121.776 137.548 120.876 138.036ZM41.7764 138.551C40.9583 139.369 39.8972 141.695 38.7192 145.255C36.6139 151.616 37.0008 155.13 40.0364 157.219C41.6622 158.338 43.7093 158.68 45.5607 158.141C47.3864 157.61 48.734 156.694 51.0966 154.376C53.7996 151.724 53.672 151.264 50.7727 153.209C47.5413 155.377 44.2396 156.203 42.9339 155.172C42.0707 154.491 41.4219 153.122 41.4219 151.984C41.4219 150.673 42.3224 147.28 43.6221 143.694C45.1092 139.591 45.2126 139.049 44.6314 138.407C43.963 137.668 42.5894 137.737 41.7764 138.551ZM103.516 139.49C103.96 140.198 102.779 142.329 100.996 144.042C98.9211 146.035 96.2552 147.403 95.435 146.896C94.6945 146.438 98.7842 141.21 101.064 139.7C102.339 138.855 103.078 138.792 103.516 139.49ZM180.272 141.746C181.975 142.785 181.998 144.07 180.358 146.608C179.159 148.464 175.78 152.067 174.254 153.117C173.66 153.527 172.831 153.93 172.413 154.014C171.783 154.14 171.575 154.046 171.197 153.47C170.788 152.845 170.774 152.61 171.065 151.19C171.456 149.282 172.918 146.077 174.547 143.559C175.591 141.944 175.821 141.728 176.35 141.861C176.683 141.945 177.344 141.845 177.818 141.639C178.965 141.141 179.303 141.155 180.272 141.746Z" fill="#395346"/>
</svg>
