<svg width="52" height="52" viewBox="0 0 52 52" fill="none" xmlns="http://www.w3.org/2000/svg">
<path d="M9.75452 15.9505C6.12329 17.1775 -0.892511 22.4125 0.0940864 33.5369C1.05599 44.383 7.69697 46.2613 11.1401 45.8432C12.7421 31.149 26.6087 32.9234 30.3085 38.4448H35.447C35.7896 37.8995 36.4336 36.1544 36.2692 33.5369L36.2653 33.4746C36.0556 30.1321 35.3955 19.6083 27.2254 15.9505C20.648 13.0058 12.8376 14.7235 9.75452 15.9505Z" fill="#F9F6F1"/>
<path d="M38.3246 41.9212H28.6641C22.5801 35.2138 17.3594 38.8538 15.5095 41.5122C14.3448 43.4208 13.2075 47.9742 17.976 50.9189C22.7446 53.8636 27.0883 50.1009 28.6641 47.8515H38.3246C40.9555 51.4506 43.5316 52.0777 44.4908 51.9413C46.2037 51.9413 49.9582 51.2052 51.2737 48.2605C52.5891 45.3158 51.8218 42.8073 51.2737 41.9212C46.3407 35.3774 40.4485 38.7856 38.3246 41.9212Z" fill="#F9F6F1"/>
<path d="M13.6596 6.1348C8.72666 6.33929 8.72666 12.4741 8.72666 12.6786C5.27357 13.4966 2.76597 16.4276 1.94381 17.7909L2.14935 8.99771C2.80708 2.29033 8.72666 0.204494 11.6042 0H24.3478C31.9117 1.30876 34.2138 6.54379 34.4193 8.99771V17.9954C32.9394 15.0507 29.5548 13.2239 28.0475 12.6786C27.7187 8.9159 24.7589 6.74827 23.3201 6.1348C21.7443 6.06663 17.606 5.9712 13.6596 6.1348Z" fill="#F9F6F1"/>
</svg>
