<svg width="32" height="32" viewBox="0 0 32 32" fill="none" xmlns="http://www.w3.org/2000/svg">
<path d="M2.66602 12.6667C2.66604 11.1829 3.11614 9.73411 3.95686 8.51155C4.79758 7.28899 5.98937 6.35021 7.37483 5.8192C8.76028 5.28819 10.2742 5.18992 11.7167 5.53739C13.1592 5.88486 14.4623 6.66171 15.454 7.76533C15.5239 7.84002 15.6083 7.89956 15.7021 7.94027C15.7959 7.98097 15.8971 8.00198 15.9993 8.00198C16.1016 8.00198 16.2028 7.98097 16.2966 7.94027C16.3904 7.89956 16.4748 7.84002 16.5447 7.76533C17.5333 6.65453 18.8367 5.87116 20.2815 5.51947C21.7263 5.16778 23.244 5.26446 24.6325 5.79664C26.021 6.32883 27.2145 7.27127 28.0542 8.49853C28.8938 9.7258 29.3398 11.1797 29.3327 12.6667C29.3327 15.72 27.3327 18 25.3327 20L18.01 27.084C17.7616 27.3693 17.4553 27.5986 17.1114 27.7564C16.7676 27.9143 16.3941 27.9971 16.0157 27.9995C15.6374 28.0019 15.2629 27.9238 14.9171 27.7703C14.5712 27.6168 14.2621 27.3915 14.01 27.1093L6.66602 20C4.66602 18 2.66602 15.7333 2.66602 12.6667Z" stroke="#395346" stroke-width="2.66667" stroke-linecap="round" stroke-linejoin="round"/>
</svg>
