<svg width="55" height="50" viewBox="0 0 55 50" fill="none" xmlns="http://www.w3.org/2000/svg">
<path fill-rule="evenodd" clip-rule="evenodd" d="M7.83697 2.31929C6.00688 3.56552 3.62515 5.77813 2.54401 7.23777C-0.210186 10.9563 -0.845381 18.0442 1.21724 22.0335C2.76245 25.0202 3.21041 25.2206 8.35338 25.2206C13.0957 25.2206 14.0641 24.8793 15.4895 22.7039C17.6598 19.3921 18.3424 19.5179 20.9335 23.7106C22.1314 25.6484 23.4259 27.2338 23.8115 27.2338C24.197 27.2338 25.7946 24.2894 27.3629 20.6906C28.9303 17.0919 30.8097 14.1474 31.5395 14.1474C32.2683 14.1474 34.2907 16.6389 36.0332 19.684L39.2011 25.2206H45.6447C51.8607 25.2206 52.1456 25.1078 53.7361 22.0335C54.8495 19.8803 55.2199 17.3949 54.8787 14.3689C53.6012 3.03199 41.0564 -3.48908 30.9839 1.94783C27.5512 3.80107 27.3982 3.80107 23.742 1.94783C18.585 -0.666435 11.9974 -0.512418 7.83697 2.31929ZM28.3122 26.2322C26.5576 30.1048 24.6691 33.2737 24.1165 33.2737C23.5628 33.2737 22.1314 31.6883 20.9335 29.7505C18.6997 26.1356 17.4958 25.4672 16.4035 27.2338C16.0613 27.7875 13.438 28.2405 10.574 28.2405H5.36665L15.9002 38.8103C21.6935 44.6237 26.9029 49.3801 27.4767 49.3801C28.0505 49.3801 33.2599 44.6237 39.0532 38.8103L49.5867 28.2405H43.3556H37.1244L34.4699 23.7106C33.0102 21.2191 31.7449 19.1827 31.6593 19.1857C31.5738 19.1887 30.0678 22.3597 28.3122 26.2322Z" fill="#F9F6F1"/>
</svg>
